<?xml version="1.0" standalone="no"?>
<!DOCTYPE svg PUBLIC "-//W3C//DTD SVG 1.1//EN" "http://www.w3.org/Graphics/SVG/1.1/DTD/svg11.dtd" >
<svg>
<metadata>
Created by FontForge 20090914 at Thu Mar 31 09:21:49 2016
 By www-data
(c) copyright 2000 Mike Abbink/Method, Inc. Produced by The Font Bureau, Inc.
</metadata>
<defs>
<font id="Kievit-Bold" horiz-adv-x="2191" >
  <font-face 
    font-family="Kievit"
    font-weight="700"
    font-stretch="normal"
    units-per-em="2048"
    panose-1="2 0 8 3 0 0 0 0 0 0"
    ascent="1638"
    descent="-410"
    x-height="997"
    cap-height="1364"
    bbox="-102 -512 2501 1886"
    underline-thickness="40"
    underline-position="-272"
    unicode-range="U+0020-U+FFFD"
  />
<missing-glyph horiz-adv-x="500" 
 />
    <glyph glyph-name=".notdef" unicode="&#xfffd;" horiz-adv-x="500" 
 />
    <glyph glyph-name="space" unicode=" " horiz-adv-x="397" 
 />
    <glyph glyph-name="exclam" unicode="!" horiz-adv-x="622" 
d="M471 1364l-51 -903h-219l-49 903h319zM483 150c0 -46.667 -16.5 -86.667 -49.5 -120s-73.833 -50 -122.5 -50c-49.333 0 -90.666 16.667 -123.999 50s-50 73.333 -50 120c0 45.333 16.667 84.166 50 116.499s74.666 48.5 123.999 48.5c48.667 0 89.5 -16.167 122.5 -48.5
s49.5 -71.166 49.5 -116.499z" />
    <glyph glyph-name="quotedbl" unicode="&#x22;" horiz-adv-x="788" 
d="M715 1364l-58 -500h-182l-31 500h271zM344 1364l-29 -500h-184l-57 500h270z" />
    <glyph glyph-name="numbersign" unicode="#" horiz-adv-x="1054" 
d="M858 1001h168l-33 -196h-164l-26 -172h168l-33 -197h-164l-39 -256h-188l37 256h-164l-39 -256h-188l38 256h-182l33 197h178l27 172h-181l31 196h180l37 248h189l-37 -248h164l37 248h188zM645 809h-172l-29 -182h174z" />
    <glyph glyph-name="dollar" unicode="$" horiz-adv-x="870" 
d="M328 1008l-0.000976562 219.004h227v-211c92 -10 171.333 -35.333 238 -76l-97 -186c-24 16 -56.333 30.833 -97 44.5s-84 20.5 -130 20.5c-98 0 -147 -29.333 -147 -88c0 -10.667 3.16699 -20.834 9.5 -30.501s14 -18 23 -25s21.667 -14.333 38 -22
s31 -13.834 44 -18.501l53 -19c22.333 -8 40.166 -14.667 53.499 -20c34 -13.333 63.333 -25.833 88 -37.5s50.167 -26.5 76.5 -44.5s47.5 -36.833 63.5 -56.5s29.333 -43.5 40 -71.5s16 -58.333 16 -91c0 -82.667 -23.5 -150 -70.5 -202s-114.167 -87 -201.5 -105v-240
h-227v232c-112 13.333 -203.667 44 -275 92l92 192c82.667 -57.333 170.334 -86 263.001 -86c114.667 0 172 30 172 90c0 18 -8.66699 34.167 -26 48.5s-36.833 25.833 -58.5 34.5s-52 20.167 -91 34.5s-70.833 27.166 -95.5 38.499
c-49.333 23.333 -89.666 46.666 -120.999 69.999s-57.833 54 -79.5 92s-32.5 81.667 -32.5 131c0 74.667 22 137.5 66 188.5s106 85.167 186 102.5z" />
    <glyph glyph-name="percent" unicode="%" horiz-adv-x="1779" 
d="M750 709c0 -42 -7.66797 -82.332 -23.001 -120.999s-37.166 -73.334 -65.499 -104.001s-65.5 -55.167 -111.5 -73.5s-97 -27.5 -153 -27.5c-110.667 0 -196.334 30.667 -257.001 92s-91 136.333 -91 225c0 42 7.5 82 22.5 120s36.833 72.167 65.5 102.5
s65.834 54.5 111.501 72.5s96.5 27 152.5 27c111.333 0 197.333 -29.833 258 -89.5s91 -134.167 91 -223.5zM1305 999.001l-598 -999h-228l600 999h226zM1731 299.001c0 -88 -31.168 -163.999 -93.501 -227.999s-148.166 -96 -257.499 -96
c-110.667 0 -196.334 30.667 -257.001 92s-91 136.666 -91 225.999c0 42 7.5 81.833 22.5 119.5s36.833 71.667 65.5 102s65.834 54.5 111.501 72.5s96.5 27 152.5 27c110.667 0 196.167 -30 256.5 -90s90.5 -135 90.5 -225zM517.998 700.002
c0 45.333 -9.66602 82.667 -28.999 112s-49.333 44 -90 44c-78.667 0 -118 -49 -118 -147c0 -45.333 9.66699 -83.333 29 -114s49.666 -46 90.999 -46c78 0 117 50.333 117 151zM1499 293.003c0 45.333 -9.66699 82.667 -29 112s-49.333 44 -90 44
c-78.667 0 -118 -50 -118 -150c0 -44.667 10 -82.167 30 -112.5s50.667 -45.5 92 -45.5c76.667 0 115 50.667 115 152z" />
    <glyph glyph-name="ampersand" unicode="&#x26;" horiz-adv-x="1361" 
d="M346 748c-47.333 56 -82.6689 108.165 -106.002 156.498s-35 99.833 -35 154.5c0 99.333 37.667 179.166 113 239.499s172.666 90.5 291.999 90.5c117.333 0 210.5 -28.667 279.5 -86s103.5 -130 103.5 -218c0 -73.333 -23.667 -138.166 -71 -194.499
s-119.666 -112.833 -216.999 -169.5l245 -279c42.667 77.333 72 160.666 88 249.999l234 -41c-25.333 -145.333 -80.666 -273.666 -165.999 -384.999l237 -266h-331l-84 96c-120 -80.667 -247 -121 -381 -121c-152.667 0 -271 35.333 -355 106s-126 161.667 -126 273
c0 47.333 6.33301 90.5 19 129.5s31.834 74.333 57.501 106s54.5 59.834 86.5 84.501s71 49.334 117 74.001zM581.997 857.998c57.333 36 98.167 70.832 122.5 104.499s36.5 69.834 36.5 108.501c0 36 -12 65.833 -36 89.5s-55.667 35.5 -95 35.5
c-40.667 0 -73.667 -12 -99 -36s-38 -55.667 -38 -95c0 -60.667 36.333 -129.667 109 -207zM783.998 255.997l-300.999 335.999c-90 -59.333 -135 -131.666 -135 -216.999c0 -56.667 19.667 -102 59 -136s92.666 -51 159.999 -51c78 0 150.333 22.667 217 68z" />
    <glyph glyph-name="quotesingle" unicode="'" horiz-adv-x="432" 
d="M354 1364l-45 -500h-186l-45 500h276z" />
    <glyph glyph-name="parenleft" unicode="(" horiz-adv-x="710" 
d="M709 -330h-258c-244.667 262 -367 566.667 -367 914c0 89.333 9 176.666 27 261.999s40.167 159.166 66.5 221.499s57.333 122 93 179s67.5 102.333 95.5 136s56.333 64.5 85 92.5h258c-27.333 -30 -53.833 -62.333 -79.5 -97s-54.5 -80.667 -86.5 -138
s-59.667 -116.666 -83 -177.999s-43 -133.666 -59 -216.999s-24 -168.333 -24 -255c0 -88 6.83301 -172.833 20.5 -254.5s31 -153.5 52 -215.5s46.833 -122.333 77.5 -181s60.167 -108 88.5 -148s59.5 -80.333 93.5 -121z" />
    <glyph glyph-name="parenright" unicode=")" horiz-adv-x="712" 
d="M0 -330c44.667 52.667 84.1611 105.169 118.494 157.502s69.333 116.166 105 191.499s63.334 161.166 83.001 257.499s29.5 198.833 29.5 307.5c0 86.667 -8.16699 171.834 -24.5 255.501s-36.166 156.667 -59.499 219s-51.166 122.166 -83.499 179.499
s-61.666 103.833 -87.999 139.5s-53.166 68.167 -80.499 97.5h262c29.333 -28 57.833 -58.5 85.5 -91.5s59.334 -78 95.001 -135s66.5 -116.167 92.5 -177.5s48.167 -134.5 66.5 -219.5s27.5 -172.167 27.5 -261.5c0 -347.333 -122.333 -654 -367 -920h-262z" />
    <glyph glyph-name="asterisk" unicode="*" horiz-adv-x="1009" 
d="M850 1190l72 -195l-267 -75l179 -211l-179 -125l-151 233l-150 -233l-180 125l178 211l-264 75l70 195l248 -96l-15 270h225l-14 -270z" />
    <glyph glyph-name="plus" unicode="+" horiz-adv-x="1089" 
d="M1010 432h-348v-362h-234v362h-348v211h348v352h234v-352h348v-211z" />
    <glyph glyph-name="comma" unicode="," horiz-adv-x="581" 
d="M473 104c0 -125.333 -50.334 -259.004 -151.001 -401.004h-175c56 84.667 84 157.667 84 219c0 20.667 -4.16699 39.334 -12.5 56.001s-18.333 31.167 -30 43.5l-35 37.5c-11.667 12.667 -21.667 28.834 -30 48.501s-12.5 41.834 -12.5 66.501
c0 44.667 15.833 81.834 47.5 111.501s70.834 44.5 117.501 44.5c55.333 0 102 -20.667 140 -62s57 -96 57 -164z" />
    <glyph glyph-name="hyphen" unicode="-" horiz-adv-x="675" 
d="M571 467h-467v221h467v-221z" />
    <glyph glyph-name="period" unicode="." horiz-adv-x="581" 
d="M471 156c0 -48.667 -17.5 -90.167 -52.5 -124.5s-77.5 -51.5 -127.5 -51.5s-92.833 17.167 -128.5 51.5s-53.5 75.833 -53.5 124.5s17.833 89.834 53.5 123.501s78.5 50.5 128.5 50.5s92.5 -16.833 127.5 -50.5s52.5 -74.834 52.5 -123.501z" />
    <glyph glyph-name="slash" unicode="/" horiz-adv-x="921" 
d="M918 1475l-652 -1805h-264l651 1805h265z" />
    <glyph glyph-name="zero" unicode="0" horiz-adv-x="1198" 
d="M1137 504c0 -51.333 -6.66699 -101.663 -20 -150.996s-34.333 -97 -63 -143s-63.5 -86.333 -104.5 -121s-91.5 -62.334 -151.5 -83.001s-126 -31 -198 -31s-138 10.167 -198 30.5s-110.5 47.333 -151.5 81s-75.5 73 -103.5 118s-48.5 92 -61.5 141
s-19.5 99.167 -19.5 150.5s6.5 101.666 19.5 150.999s33.833 96.666 62.5 141.999s63.667 85.166 105 119.499s92.166 61.833 152.499 82.5s126.5 31 198.5 31s137.833 -9.83301 197.5 -29.5s109.834 -46.167 150.501 -79.5s75.167 -72.333 103.5 -117s49 -91.5 62 -140.5
s19.5 -99.5 19.5 -151.5zM846 496.003c0 96.667 -21.332 172.333 -63.999 227s-103.334 82 -182.001 82c-79.333 0 -139.833 -26.167 -181.5 -78.5s-62.5 -126.5 -62.5 -222.5c0 -96.667 21.333 -172.667 64 -228s104 -83 184 -83c78 0 137.833 26.5 179.5 79.5
s62.5 127.5 62.5 223.5z" />
    <glyph glyph-name="one" unicode="1" horiz-adv-x="753" 
d="M604 0h-270v762l-238 -72l-55 215l354 92h209v-997z" />
    <glyph glyph-name="two" unicode="2" horiz-adv-x="1042" 
d="M979 0h-935.998v123c151.333 108 256.333 186.333 315 235c164 135.333 246 242 246 320c0 41.333 -14 73.166 -42 95.499s-68 33.5 -120 33.5c-84.667 0 -164.334 -35.667 -239.001 -107l-133 170c45.333 43.333 104.333 79.833 177 109.5s151.334 44.5 236.001 44.5
c126.667 0 227 -24.333 301 -73s111 -122 111 -220c0 -41.333 -9.33301 -83.166 -28 -125.499s-40.834 -80 -66.501 -113s-59.834 -68.5 -102.501 -106.5s-79.667 -68.833 -111 -92.5l-116 -84.5c52 5.33301 95.667 8 131 8h377v-217z" />
    <glyph glyph-name="three" unicode="3" horiz-adv-x="937" 
d="M881 57c0 -134.667 -54.999 -242.001 -164.999 -322.001s-253 -120 -429 -120c-90.667 0 -161.667 4.66699 -213 14l41 219c30 -12 81.667 -18 155 -18c94.667 0 171.667 19.333 231 58s89 93.667 89 165c0 136.667 -116 205 -348 205v197
c48 0.666992 95.5 9.83398 142.5 27.501s86.833 43.667 119.5 78s49 72.166 49 113.499c0 42.667 -13.833 75.167 -41.5 97.5s-68.5 33.5 -122.5 33.5c-75.333 0 -147.666 -30 -216.999 -90l-127 172c110 90 243 135 399 135c123.333 0 219.5 -28.333 288.5 -85
s103.5 -130 103.5 -220c0 -41.333 -8.5 -80.666 -25.5 -117.999s-39 -69.166 -66 -95.499s-56 -48.5 -87 -66.5s-62.5 -31.333 -94.5 -40v-2c40 -4.66699 78.667 -15.5 116 -32.5s71.166 -39.167 101.499 -66.5s54.666 -61.833 72.999 -103.5s27.5 -86.834 27.5 -135.501z
" />
    <glyph glyph-name="four" unicode="4" horiz-adv-x="1234" 
d="M1167 0h-213v-362h-270v362h-637v172l668 825h239v-788h213v-209zM684 209v436h-4l-340 -436h344z" />
    <glyph glyph-name="five" unicode="5" horiz-adv-x="931" 
d="M864 98c0 -146.667 -54.167 -263.832 -162.5 -351.499s-256.166 -131.5 -443.499 -131.5c-66.667 0 -132.334 6.66699 -197.001 20l52 218c46.667 -14 95.667 -21 147 -21c90.667 0 165.5 21.833 224.5 65.5s88.5 105.834 88.5 186.501
c0 57.333 -13.833 104.5 -41.5 141.5s-64 63 -109 78s-98.5 22.5 -160.5 22.5c-57.333 0 -105 -4.33301 -143 -13l43 684h674v-209h-428l-17 -251c148.667 -2.66699 264.667 -43.834 348 -123.501s125 -184.834 125 -315.501z" />
    <glyph glyph-name="six" unicode="6" horiz-adv-x="1116" 
d="M369 754c72 53.333 160.668 80.002 266.001 80.002c124 0 224.667 -36.667 302 -110s116 -174.666 116 -303.999c0 -87.333 -21.167 -165 -63.5 -233s-100.166 -120.333 -173.499 -157s-155.666 -55 -246.999 -55c-70 0 -133.333 10.833 -190 32.5
s-103.834 51.167 -141.501 88.5s-69.334 81.666 -95.001 132.999s-44.167 105.666 -55.5 162.999s-17 117.666 -17 180.999c0 119.333 20 229.333 60 330s96.333 186.834 169 258.501s163 127.5 271 167.5s227.333 60 358 60l59 -218c-94 0 -183.833 -13 -269.5 -39
s-154.834 -65.333 -207.501 -118c-76.667 -66.667 -123.667 -153.334 -141 -260.001zM356.001 551.002c0 -122 19 -213.667 57 -275s93 -92 165 -92c58 0 103.833 20.5 137.5 61.5s50.5 92.833 50.5 155.5c0 74 -17 130.167 -51 168.5s-82.667 57.5 -146 57.5
c-84.667 0 -155.667 -25.333 -213 -76z" />
    <glyph glyph-name="seven" unicode="7" horiz-adv-x="980" 
d="M899 852l-592 -1264l-227 111l504 1077h-543v223h858v-147z" />
    <glyph glyph-name="eight" unicode="8" horiz-adv-x="1097" 
d="M743 727c88.667 -45.333 157.001 -97.834 205.001 -157.501s72 -132.167 72 -217.5c0 -117.333 -43.5 -209.5 -130.5 -276.5s-200.5 -100.5 -340.5 -100.5c-148 0 -263.833 33.833 -347.5 101.5s-125.5 155.5 -125.5 263.5c0 144 88.667 264 266 360
c-75.333 42.667 -132 90.167 -170 142.5s-57 113.5 -57 183.5c0 106.667 41.667 193.834 125 261.501s185.666 101.5 306.999 101.5c136 0 243.667 -31 323 -93s119 -146.667 119 -254c0 -118 -82 -223 -246 -315zM557.001 833.999c104 64 156 130.001 156 198.001
c0 45.333 -14 82.666 -42 111.999s-66.667 44 -116 44c-50 0 -89.5 -14.167 -118.5 -42.5s-43.5 -64.166 -43.5 -107.499c0 -40.667 13.667 -76.834 41 -108.501s68.333 -63.5 123 -95.5zM524.001 590c-116 -72 -174 -151.999 -174 -239.999c0 -50.667 17.833 -92 53.5 -124
s84.167 -48 145.5 -48c60 0 106.667 16.5 140 49.5s50 74.5 50 124.5c0 45.333 -18 86.666 -54 123.999s-89.667 75.333 -161 114z" />
    <glyph glyph-name="nine" unicode="9" horiz-adv-x="1122" 
d="M754 250c-72.667 -54.667 -162.331 -81.998 -268.998 -81.998c-124 0 -225.333 37 -304 111s-118 175 -118 303c0 87.333 22.167 164.666 66.5 231.999s103.666 118.833 177.999 154.5s156.833 53.5 247.5 53.5c71.333 0 135.5 -11 192.5 -33s104 -51.667 141 -89
s68 -81.833 93 -133.5s42.833 -105.834 53.5 -162.501s16 -116.667 16 -180c0 -246 -77.167 -441 -231.5 -585s-370.833 -216 -649.5 -216l-57 215c87.333 0 175.166 12.167 263.499 36.5s160.833 59.5 217.5 105.5c47.333 37.333 83.5 77.333 108.5 120
s42.167 92.667 51.5 150zM766.003 449.002c0 120 -18.668 211 -56.001 273s-91.666 93 -162.999 93c-56 0 -102.167 -19.833 -138.5 -59.5s-54.5 -93.5 -54.5 -161.5c0 -70 17.167 -124 51.5 -162s82.833 -57 145.5 -57c82 0 153.667 24.667 215 74z" />
    <glyph glyph-name="colon" unicode=":" horiz-adv-x="585" 
d="M473 838c0 -50 -17.5 -92.333 -52.5 -127s-77.5 -52 -127.5 -52s-92.833 17.333 -128.5 52s-53.5 77 -53.5 127c0 48.667 17.833 89.834 53.5 123.501s78.5 50.5 128.5 50.5s92.5 -16.833 127.5 -50.5s52.5 -74.834 52.5 -123.501zM473 158
c0 -50 -17.5 -92.167 -52.5 -126.5s-77.5 -51.5 -127.5 -51.5s-92.833 17.167 -128.5 51.5s-53.5 76.5 -53.5 126.5c0 48.667 17.833 89.834 53.5 123.501s78.5 50.5 128.5 50.5s92.5 -16.833 127.5 -50.5s52.5 -74.834 52.5 -123.501z" />
    <glyph glyph-name="semicolon" unicode=";" horiz-adv-x="585" 
d="M473 838c0 -50 -17.5 -92.333 -52.5 -127s-77.5 -52 -127.5 -52s-92.833 17.333 -128.5 52s-53.5 77 -53.5 127c0 48.667 17.833 89.834 53.5 123.501s78.5 50.5 128.5 50.5s92.5 -16.833 127.5 -50.5s52.5 -74.834 52.5 -123.501zM479 104
c0 -125.333 -50.333 -259.004 -151 -401.004h-174c56 84.667 84 157.667 84 219c0 20.667 -4.16699 39.334 -12.5 56.001s-18.333 31.167 -30 43.5l-35.5 37.5c-12 12.667 -22.167 28.834 -30.5 48.501s-12.5 41.834 -12.5 66.501c0 44.667 16 81.834 48 111.501
s71.333 44.5 118 44.5c54.667 0 101 -20.5 139 -61.5s57 -95.833 57 -164.5z" />
    <glyph glyph-name="less" unicode="&#x3c;" horiz-adv-x="800" 
d="M727 199l-145 -158l-529 467l525 475l145 -147l-354 -322z" />
    <glyph glyph-name="equal" unicode="=" horiz-adv-x="978" 
d="M899 627h-819v209h819v-209zM899 244h-819v209h819v-209z" />
    <glyph glyph-name="greater" unicode="&#x3e;" horiz-adv-x="800" 
d="M74 827l147 156l527 -465l-525 -477l-143 149l354 320z" />
    <glyph glyph-name="question" unicode="?" horiz-adv-x="845" 
d="M780 1036c0 -32.667 -3.99902 -63.668 -11.999 -93.001s-17.833 -54.666 -29.5 -75.999s-26.5 -42 -44.5 -62s-35 -36.5 -51 -49.5s-34.333 -26.5 -55 -40.5c-4.66699 -3.33301 -14 -9.5 -28 -18.5s-23 -15 -27 -18l-22 -16
c-10.667 -7.66699 -17.834 -13.334 -21.501 -17.001l-16.5 -16.5c-7.33301 -7.33301 -12.166 -13.833 -14.499 -19.5s-5.5 -12.334 -9.5 -20.001s-6.5 -15.667 -7.5 -24s-1.5 -17.166 -1.5 -26.499v-82h-237v108c0 60 11 108 33 144s58 70 108 102
c49.333 32 85.166 62.333 107.499 91s33.5 65.334 33.5 110.001c0 102 -60.667 153 -182 153c-50 0 -108.667 -16.333 -176 -49l-94 201c86 48 192.333 72 319 72c140 0 246.333 -32.667 319 -98s109 -150.333 109 -255zM496.001 149.999
c0 -46.667 -16.333 -86.666 -49 -119.999s-73.667 -50 -123 -50s-90.666 16.667 -123.999 50s-50 73.333 -50 120c0 45.333 16.667 84.166 50 116.499s74.666 48.5 123.999 48.5s90.333 -16 123 -48s49 -71 49 -117z" />
    <glyph glyph-name="at" unicode="@" horiz-adv-x="1662" 
d="M1595 653c0 -144.667 -38.165 -262.333 -114.498 -353s-176.5 -136 -300.5 -136c-70.667 0 -124 15.667 -160 47s-56.667 74.333 -62 129h-6c-26 -46.667 -62 -87 -108 -121s-100 -51 -162 -51c-63.333 0 -114 23.5 -152 70.5s-57 104.833 -57 173.5
c0 98.667 17.167 189 51.5 271s85.166 148.333 152.499 199s145.333 76 234 76c99.333 0 200.333 -18.333 303 -55l-59 -342c-10.667 -60 -16 -104.333 -16 -133c0 -26.667 6.66699 -48.334 20 -65.001s31 -25 53 -25c56.667 0 104.334 27.5 143.001 82.5
s58 127.833 58 218.5c0 154 -48.333 273.333 -145 358s-228.667 127 -396 127c-76 0 -149 -15.667 -219 -47s-131 -74.166 -183 -128.499s-93.5 -120.5 -124.5 -198.5s-46.5 -161.333 -46.5 -250c0 -167.333 46.167 -297.333 138.5 -390s225.833 -139 400.5 -139
c106.667 0 205.667 20 297 60l65 -162c-44.667 -18 -102.167 -34.167 -172.5 -48.5s-141.166 -21.5 -212.499 -21.5c-109.333 0 -209.333 17.5 -300 52.5s-166.667 83.167 -228 144.5s-108.833 134.666 -142.5 219.999s-50.5 178 -50.5 278s19.5 198.167 58.5 294.5
s92.167 181.833 159.5 256.5s150.166 134.834 248.499 180.501s202.833 68.5 313.5 68.5c114.667 0 218.667 -17.667 312 -53s169.166 -82.833 227.499 -142.5s103.166 -127.667 134.499 -204s47 -156.833 47 -241.5zM999.002 780.001c-28.667 11.333 -60.668 17 -96.001 17
c-41.333 0 -77.833 -16.5 -109.5 -49.5s-55.5 -75.333 -71.5 -127s-24 -107.5 -24 -167.5c0 -67.333 22.667 -101 68 -101c98.667 0 172.334 123.667 221.001 371z" />
    <glyph glyph-name="A" unicode="A" horiz-adv-x="1392" 
d="M412 256l-90 -256h-291l520 1364h278l535 -1364h-315l-93 256h-544zM874 487l-116 326.001c-12.667 34.667 -25.167 71.667 -37.5 111s-21.5 70 -27.5 92l-9 33h-4c-20.667 -80.667 -44.667 -159.334 -72 -236.001l-114 -326h380z" />
    <glyph glyph-name="B" unicode="B" horiz-adv-x="1241" 
d="M1153 379c0 -68 -13 -126.835 -39 -176.502s-63.5 -89 -112.5 -118s-105 -50.333 -168 -64s-134.833 -20.5 -215.5 -20.5h-448v1364h455c66 0 126.167 -5.83301 180.5 -17.5s103.833 -30.167 148.5 -55.5s79.5 -60.666 104.5 -105.999s37.5 -99 37.5 -161
c0 -166 -80.667 -270.333 -242 -313v-4c86.667 -13.333 158.167 -48.166 214.5 -104.499s84.5 -130.833 84.5 -223.5zM811 978.998c0 109.333 -72.333 164 -217 164h-139v-340h133c77.333 0 133.833 14.167 169.5 42.5s53.5 72.833 53.5 133.5zM860 402.998
c0 64.667 -19.667 113 -59 145s-100.333 48 -183 48h-163v-375h151c85.333 0 149 14.333 191 43s63 75 63 139z" />
    <glyph glyph-name="C" unicode="C" horiz-adv-x="1265" 
d="M1221 119c-41.333 -37.333 -101 -70.666 -179 -99.999s-162.667 -44 -254 -44c-90.667 0 -174.334 12.667 -251.001 38s-142.334 60.166 -197.001 104.499s-101.167 96.5 -139.5 156.5s-66.666 124.667 -84.999 194s-27.5 141.333 -27.5 216s9.5 146.5 28.5 215.5
s48 133.333 87 193s86.167 111.5 141.5 155.5s121.333 78.5 198 103.5s160 37.5 250 37.5c162.667 0 299 -36.333 409 -109l-129 -211c-82.667 53.333 -177.667 80 -285 80c-123.333 0 -219.666 -43.333 -288.999 -130s-104 -195.667 -104 -327
c0 -66 8.33301 -127.333 25 -184s41.167 -106.834 73.5 -150.501s74.166 -78 125.499 -103s109.333 -37.5 174 -37.5c66.667 0 123.834 9.33301 171.501 28s93.5 44.334 137.5 77.001z" />
    <glyph glyph-name="D" unicode="D" horiz-adv-x="1445" 
d="M1362 700c0 -100 -16 -191.833 -48 -275.5s-79.667 -157.5 -143 -221.5s-146.166 -113.833 -248.499 -149.5s-219.5 -53.5 -351.5 -53.5h-401v1364h412c131.333 0 247.166 -16 347.499 -48s181.833 -77.667 244.5 -137s109.667 -129 141 -209s47 -170 47 -270zM1057 692
c0 152 -38.167 263.5 -114.5 334.5s-195.833 106.5 -358.5 106.5h-125v-902h135c153.333 0 268.833 38.833 346.5 116.5s116.5 192.5 116.5 344.5z" />
    <glyph glyph-name="E" unicode="E" horiz-adv-x="1081" 
d="M971 0h-801v1364h786v-238h-501v-307h442v-225h-442v-356h516v-238z" />
    <glyph glyph-name="F" unicode="F" horiz-adv-x="1040" 
d="M952 1126h-493v-333h434v-226h-434v-567h-289v1364h782v-238z" />
    <glyph glyph-name="G" unicode="G" horiz-adv-x="1454" 
d="M1325 106l-48.0059 -28.499c-7.33301 -4.33301 -29.666 -14.833 -66.999 -31.5s-71.666 -28.834 -102.999 -36.501s-74 -15.334 -128 -23.001s-110.667 -11.5 -170 -11.5c-91.333 0 -176.166 12.833 -254.499 38.5s-145.833 60.667 -202.5 105s-105 96.5 -145 156.5
s-69.833 124.667 -89.5 194s-29.5 141 -29.5 215c0 93.333 16.833 182.333 50.5 267s81.334 159.5 143.001 224.5s140 116.833 235 155.5s199.833 58 314.5 58c187.333 0 337 -41 449 -123l-129 -215c-91.333 65.333 -200 98 -326 98c-140 0 -246.667 -42.167 -320 -126.5
s-110 -194.5 -110 -330.5c0 -67.333 8.16699 -129.5 24.5 -186.5s40.833 -107.667 73.5 -152s75.834 -79.166 129.501 -104.499s115.167 -38 184.5 -38c90.667 0 171.334 17.667 242.001 53v271h-252v223h528v-652z" />
    <glyph glyph-name="H" unicode="H" horiz-adv-x="1525" 
d="M1358 0h-289v590h-610v-590h-289v1364h289v-537h610v537h289v-1364z" />
    <glyph glyph-name="I" unicode="I" horiz-adv-x="663" 
d="M471 0h-289v1364h289v-1364z" />
    <glyph glyph-name="J" unicode="J" horiz-adv-x="677" 
d="M508 -4c0 -133.333 -34.5 -235.667 -103.5 -307s-164.833 -107 -287.5 -107c-74.667 0 -141.667 11 -201 33l45 235c27.333 -12 59.333 -18 96 -18c57.333 0 98.333 15.667 123 47s37 83.333 37 156v1329h291v-1368z" />
    <glyph glyph-name="K" unicode="K" horiz-adv-x="1290" 
d="M457 768l465 596h319l-502 -633l525 -731h-342l-465 657v-657h-287v1364h287v-596z" />
    <glyph glyph-name="L" unicode="L" horiz-adv-x="1052" 
d="M973 0h-799v1364h291v-1131h508v-233z" />
    <glyph glyph-name="M" unicode="M" horiz-adv-x="1806" 
d="M1026 0l-285.001 -0.000976562l-231 707l-55 196h-4c-6 -74 -12.333 -141 -19 -201l-88 -702h-260l188 1364h281l274 -842c10.667 -29.333 21.834 -63.666 33.501 -102.999l27.5 -95l9 -37h4c24.667 90 48.667 168.333 72 235l282 842h279l188 -1364h-295l-88 705
l-22 198h-4c-18 -68 -36.667 -132.667 -56 -194z" />
    <glyph glyph-name="N" unicode="N" horiz-adv-x="1519" 
d="M1352 0h-265l-530 758c-23.333 31.333 -45.833 64.166 -67.5 98.499s-37.5 60.833 -47.5 79.5l-16 27h-4c5.33301 -63.333 8 -124.333 8 -183v-780h-262v1364h291l491 -707l72 -109c24 -38 42 -67.333 54 -88l18 -32h4c-5.33301 72.667 -8 144.334 -8 215.001v721h262
v-1364z" />
    <glyph glyph-name="O" unicode="O" horiz-adv-x="1583" 
d="M1495 688c0 -94 -15.166 -183.331 -45.499 -267.998s-73.833 -160.334 -130.5 -227.001s-129.834 -119.667 -219.501 -159s-189.834 -59 -300.501 -59c-89.333 0 -172.333 12.667 -249 38s-143 60 -199 104s-104 95.667 -144 155s-69.833 123.666 -89.5 192.999
s-29.5 141 -29.5 215c0 94 15.667 183.167 47 267.5s75.833 159.5 133.5 225.5s131.834 118.5 222.501 157.5s191.334 58.5 302.001 58.5s211.167 -19.167 301.5 -57.5s164.166 -90.166 221.499 -155.499s101.5 -139.833 132.5 -223.5s46.5 -171.834 46.5 -264.501z
M1190 680.002c0 65.333 -7.83301 126.002 -23.5 182.002s-38.834 106.167 -69.501 150.5s-71.5 79.166 -122.5 104.499s-109.5 38 -175.5 38c-66.667 0 -126.167 -12.333 -178.5 -37s-94.666 -58.5 -126.999 -101.5s-56.833 -92.333 -73.5 -148s-25 -115.834 -25 -180.501
c0 -88 13.833 -167.333 41.5 -238s72.167 -128.5 133.5 -173.5s135.666 -67.5 222.999 -67.5c66.667 0 125.834 12.5 177.501 37.5s93.167 59.333 124.5 103s55 93.5 71 149.5s24 116.333 24 181z" />
    <glyph glyph-name="P" unicode="P" horiz-adv-x="1210" 
d="M1137 934c0 -146 -49.1689 -257.333 -147.502 -334s-234.166 -115 -407.499 -115h-125v-485h-291v1364h448c75.333 0 144.333 -8.83301 207 -26.5s117.834 -43.667 165.501 -78s84.667 -79.333 111 -135s39.5 -119.167 39.5 -190.5zM845.998 930
c0 142 -84.667 212.999 -254 212.999h-135v-438h129c90 0 155.833 18.333 197.5 55s62.5 93.334 62.5 170.001z" />
    <glyph glyph-name="Q" unicode="Q" horiz-adv-x="1583" 
d="M991 -2c40.667 -51.333 80.6631 -87.666 119.996 -108.999s88 -32 146 -32c63.333 0 118 18.333 164 55l92 -191c-25.333 -20.667 -61.333 -39 -108 -55s-100 -24 -160 -24c-110 0 -209.833 25.167 -299.5 75.5s-184.167 139.833 -283.5 268.5
c-90.667 14.667 -172.667 43.834 -246 87.501s-133.666 96.667 -180.999 159s-83.666 131.666 -108.999 207.999s-38 156.166 -38 239.499c0 94 15.667 183.167 47 267.5s75.833 159.5 133.5 225.5s131.834 118.5 222.501 157.5s191.334 58.5 302.001 58.5
s211.167 -19.167 301.5 -57.5s164.166 -90.166 221.499 -155.499s101.5 -139.833 132.5 -223.5s46.5 -171.834 46.5 -264.501c0 -106.667 -18.5 -206.667 -55.5 -300s-94.167 -175 -171.5 -245s-169.666 -118.333 -276.999 -145zM1190 680
c0 65.333 -7.83301 126.002 -23.5 182.002s-38.834 106.167 -69.501 150.5s-71.5 79.166 -122.5 104.499s-109.5 38 -175.5 38c-66.667 0 -126.167 -12.333 -178.5 -37s-94.666 -58.5 -126.999 -101.5s-56.833 -92.333 -73.5 -148s-25 -115.834 -25 -180.501
c0 -88 13.833 -167.333 41.5 -238s72.167 -128.5 133.5 -173.5s135.666 -67.5 222.999 -67.5c66.667 0 125.834 12.5 177.501 37.5s93.167 59.333 124.5 103s55 93.5 71 149.5s24 116.333 24 181z" />
    <glyph glyph-name="R" unicode="R" horiz-adv-x="1267" 
d="M1237 0l-317.001 -0.00195312l-250 389c-51.333 76.667 -88.166 124.5 -110.499 143.5s-49.833 28.5 -82.5 28.5h-18v-561h-289v1364h455c160.667 0 284.667 -33.667 372 -101s131 -164.666 131 -291.999c0 -54 -8.66699 -102.833 -26 -146.5s-41 -80.167 -71 -109.5
s-63.333 -53.166 -100 -71.499s-76.667 -31.5 -120 -39.5v-4c44 -32 97.333 -96.667 160 -194zM841.999 953.998c0 63.333 -19.167 110.667 -57.5 142s-98.5 47 -180.5 47h-145v-377h157c75.333 0 131.833 16.167 169.5 48.5s56.5 78.833 56.5 139.5z" />
    <glyph glyph-name="S" unicode="S" horiz-adv-x="1056" 
d="M975 381c0 -124.667 -43.835 -223.505 -131.502 -296.505s-207.167 -109.5 -358.5 -109.5c-97.333 0 -181.666 14.167 -252.999 42.5s-127.666 59.5 -168.999 93.5l123 200c91.333 -68 189 -102 293 -102c66.667 0 119.5 15 158.5 45s58.5 67.667 58.5 113
c0 23.333 -4.83301 44 -14.5 62s-26 35 -49 51s-44 28.833 -63 38.5s-48 23.334 -87 41.001l-91.5 42.5c-45.333 22 -84.5 44.667 -117.5 68s-63.5 51 -91.5 83s-49 69.5 -63 112.5s-21 91.167 -21 144.5c0 76 19.833 143 59.5 201s92.834 102.167 159.501 132.5
s140.667 45.5 222 45.5c164.667 0 297.667 -38.333 399 -115l-117 -203c-84.667 56 -173.334 84 -266.001 84c-56.667 0 -101.167 -12.167 -133.5 -36.5s-48.5 -59.166 -48.5 -104.499c0 -13.333 1.83301 -25.666 5.5 -36.999s8 -21.5 13 -30.5s13.167 -18.167 24.5 -27.5
l28.5 -23c7.66699 -6 20.5 -13.667 38.5 -23s31.833 -16.166 41.5 -20.499l49.5 -22c23.333 -10.333 40.333 -18.166 51 -23.499l76.5 -36.5c21 -10.333 44.667 -23.5 71 -39.5s48.5 -31.667 66.5 -47s36.167 -33.833 54.5 -55.5s33 -44.167 44 -67.5s20 -50.333 27 -81
s10.5 -63.667 10.5 -99z" />
    <glyph glyph-name="T" unicode="T" horiz-adv-x="1099" 
d="M1071 1126h-375v-1126h-290v1126h-377v238h1042v-238z" />
    <glyph glyph-name="U" unicode="U" horiz-adv-x="1468" 
d="M1303 555c0 -188 -47.167 -331.667 -141.5 -431s-233.833 -149 -418.5 -149c-194.667 0 -340.167 47 -436.5 141s-144.5 231.333 -144.5 412v836h289v-811c0 -118 23.333 -204.167 70 -258.5s123 -81.5 229 -81.5c190.667 0 286 107.333 286 322v829h267v-809z" />
    <glyph glyph-name="V" unicode="V" horiz-adv-x="1361" 
d="M1335 1364l-507.999 -1364h-274l-526 1364h311l287 -817c10.667 -30 21.667 -64 33 -102s20 -68.333 26 -91l10 -35h4c23.333 84 46.666 160 69.999 228l276 817h291z" />
    <glyph glyph-name="W" unicode="W" horiz-adv-x="1871" 
d="M1839 1364l-373 -1364h-266l-196 756c-8.66699 32.667 -17.667 70.167 -27 112.5s-16.333 76.5 -21 102.5l-8 39h-4c-20 -94 -40.333 -178.667 -61 -254l-215 -756h-267l-366 1364h307l172 -713c8 -32 16.167 -68.833 24.5 -110.5s14.5 -75.167 18.5 -100.5l6 -39h4
c20.667 99.333 40 185.333 58 258l186 705h285l182 -700c8.66699 -33.333 17.5 -71.833 26.5 -115.5l21.5 -105.5l7 -40h4c14.667 94 31 178 49 252l177 709h276z" />
    <glyph glyph-name="X" unicode="X" horiz-adv-x="1253" 
d="M471 700l-412 664h328l258 -430l242 430h291c-262.667 -438 -394 -657.667 -394 -659l439 -705h-328l-287 473l-276 -473h-293z" />
    <glyph glyph-name="Y" unicode="Y" horiz-adv-x="1224" 
d="M1202 1364l-438 -850v-514h-289v514l-452 850h321l289 -580h2l287 580h280z" />
    <glyph glyph-name="Z" unicode="Z" horiz-adv-x="1183" 
d="M1087 0h-993v188l625 940h-598v236h948v-184l-631 -944h649v-236z" />
    <glyph glyph-name="bracketleft" unicode="[" horiz-adv-x="698" 
d="M645 -330h-512v1805h512v-203h-252v-1399h252v-203z" />
    <glyph glyph-name="backslash" unicode="\" horiz-adv-x="921" 
d="M2 1475h264l652 -1805h-265z" />
    <glyph glyph-name="bracketright" unicode="]" horiz-adv-x="698" 
d="M53 1475h512v-1805h-512v203h252v1399h-252v203z" />
    <glyph glyph-name="asciicircum" unicode="^" horiz-adv-x="1196" 
d="M1104 590h-250l-256 493l-256 -493h-252l412 774h190z" />
    <glyph glyph-name="underscore" unicode="_" horiz-adv-x="886" 
d="M889 -377h-891v211h891v-211z" />
    <glyph glyph-name="grave" unicode="`" horiz-adv-x="1024" 
d="M780 1108h-233l-287 276h350z" />
    <glyph glyph-name="a" unicode="a" horiz-adv-x="1028" 
d="M934 0l-267.999 -0.00195312c-8.66699 26.667 -14.334 62 -17.001 106c-29.333 -34.667 -67.666 -65.167 -114.999 -91.5s-102.333 -39.5 -165 -39.5c-87.333 0 -159.333 25.167 -216 75.5s-85 118.833 -85 205.5c0 50 10 95.333 30 136s47 74.334 81 101.001
s74 49 120 67s94 30.833 144 38.5s102.333 11.5 157 11.5h35v58c0 46 -12 80.667 -36 104s-66 35 -126 35c-30 0 -58.833 -3.16699 -86.5 -9.5s-53.334 -15.833 -77.001 -28.5s-40.667 -22.334 -51 -29.001s-23.5 -15.667 -39.5 -27l-119 166
c24.667 22.667 52.5 43.334 83.5 62.001s75.833 36.834 134.5 54.501s120.667 26.5 186 26.5c138 0 239.333 -29 304 -87s97 -152 97 -282v-358c0 -110 9.66699 -208.333 29 -295zM635.001 261.998v180.001h-35c-180 0 -270 -54.333 -270 -163
c0 -34.667 11.833 -60.834 35.5 -78.501s52.167 -26.5 85.5 -26.5c68 0 129.333 29.333 184 88z" />
    <glyph glyph-name="b" unicode="b" horiz-adv-x="1132" 
d="M129 1475l272.001 -0.000976562v-555c27.333 27.333 62.333 51.166 105 71.499s89 30.5 139 30.5c129.333 0 232.333 -44.167 309 -132.5s115 -216.166 115 -383.499c0 -165.333 -49.5 -295.166 -148.5 -389.499s-226.167 -141.5 -381.5 -141.5
c-164.667 0 -301.334 26.667 -410.001 80v1420zM401.001 730.999v-520c46 -15.333 92 -23 138 -23c76.667 0 136 27.5 178 82.5s63 133.5 63 235.5c0 96 -17.333 170.167 -52 222.5s-87.667 78.5 -159 78.5c-37.333 0 -71.5 -8.66699 -102.5 -26s-52.833 -34 -65.5 -50z" />
    <glyph glyph-name="c" unicode="c" horiz-adv-x="937" 
d="M899 66c-17.333 -11.333 -32.8359 -20.6699 -46.5029 -28.0029s-34 -16.666 -61 -27.999s-58.667 -20 -95 -26s-75.833 -9 -118.5 -9c-158 0 -283.667 48.167 -377 144.5s-140 222.5 -140 378.5c0 164 48.833 292.333 146.5 385s223.834 139 378.501 139
c122.667 0 224.334 -26.667 305.001 -80l-88 -186c-61.333 39.333 -131 59 -209 59s-138.167 -28 -180.5 -84s-63.5 -131 -63.5 -225c0 -96 21.167 -173.333 63.5 -232s104.5 -88 186.5 -88c26.667 0 51.834 2 75.501 6s45.667 10.333 66 19s34 14.834 41 18.501
s17.833 9.83398 32.5 18.501z" />
    <glyph glyph-name="d" unicode="d" horiz-adv-x="1144" 
d="M63 496c0 157.333 42.002 284.333 126.002 381s191 145 321 145c90 0 167 -23.333 231 -70v516h273v-1183c0 -104.667 9.33301 -199.667 28 -285h-268c-10.667 34 -17.334 70.333 -20.001 109c-74.667 -90.667 -168.334 -136 -281.001 -136
c-126.667 0 -226.667 45.833 -300 137.5s-110 220.167 -110 385.5zM352.002 496c0 -97.333 16.833 -172.167 50.5 -224.5s84.5 -78.5 152.5 -78.5c30 0 58.833 6.66699 86.5 20s48.667 26.5 63 39.5s26.5 26.5 36.5 40.5v450c-50 44 -108 66 -174 66
c-69.333 0 -122.5 -27.333 -159.5 -82s-55.5 -131.667 -55.5 -231z" />
    <glyph glyph-name="e" unicode="e" horiz-adv-x="1062" 
d="M352 436c6 -80.667 30.1689 -143.833 72.502 -189.5s103.5 -68.5 183.5 -68.5c14.667 0 28.834 0.5 42.501 1.5s27 2.66699 40 5l33.5 6c9.33301 1.66699 20 4.66699 32 9s21 7.33301 27 9s14.833 5.16699 26.5 10.5s18.667 8.66602 21 9.99902s9.16602 5 20.499 11l17 8
l88 -176c-25.333 -14 -45.333 -24.667 -60 -32s-38.334 -17.166 -71.001 -29.499s-69 -21.333 -109 -27s-84 -8.5 -132 -8.5c-164.667 0 -293 47.833 -385 143.5s-138 224.167 -138 385.5c0 154.667 47.167 279.667 141.5 375s211.833 143 352.5 143
c154.667 0 269.167 -51.333 343.5 -154s103.166 -246.667 86.499 -432h-633zM352.002 621.001l370.999 0.000976562c-1.33301 61.333 -15.666 110.666 -42.999 147.999s-70.333 56 -129 56c-114 0 -180.333 -68 -199 -204z" />
    <glyph glyph-name="f" unicode="f" horiz-adv-x="747" 
d="M457 795v-795h-273v795h-149v202h149v103c0 122 34.5 219 103.5 291s165.833 108 290.5 108c104.667 0 185 -15.667 241 -47l-63 -205c-38.667 19.333 -84.667 29 -138 29c-107.333 0 -161 -65.667 -161 -197v-82h237v-202h-237z" />
    <glyph glyph-name="g" unicode="g" horiz-adv-x="1105" 
d="M694 997l362.999 -0.000976562v-178h-133c24.667 -46.667 37 -100 37 -160c0 -108.667 -37.667 -195.834 -113 -261.501s-181.333 -98.5 -318 -98.5c-37.333 0 -76.666 3.33301 -117.999 10c-24.667 -18.667 -37 -38.334 -37 -59.001
c0 -25.333 14.333 -42.666 43 -51.999s81 -16 157 -20c4.66699 0 11.667 -0.333008 21 -1c30.667 -1.33301 54 -2.5 70 -3.5s38.667 -3 68 -6s52.333 -6.5 69 -10.5s37.5 -9.83301 62.5 -17.5s44.833 -16.5 59.5 -26.5s30.5 -22.667 47.5 -38s30 -32.5 39 -51.5
s16.667 -41.5 23 -67.5s9.5 -54.333 9.5 -85c0 -106 -50.167 -192.5 -150.5 -259.5s-232.166 -100.5 -395.499 -100.5c-140 0 -248.167 22.333 -324.5 67s-114.5 111 -114.5 199c0 102.667 56 183.667 168 243c-58.667 35.333 -88 86 -88 152
c0 80.667 37.667 143.334 113 188.001c-56.667 32 -100.5 73.667 -131.5 125s-46.5 109.333 -46.5 174c0 108.667 39.667 196.334 119 263.001s187 100 323 100c65.333 0 124.666 -8.33301 177.999 -25zM517.999 474.999c56.667 0 100.834 16.333 132.501 49
s47.5 77.667 47.5 135c0 58.667 -15.833 104.167 -47.5 136.5s-75.834 48.5 -132.501 48.5s-100.834 -16.167 -132.501 -48.5s-47.5 -77.833 -47.5 -136.5c0 -57.333 15.833 -102.333 47.5 -135s75.834 -49 132.501 -49zM398.999 -33.001
c-53.333 -36.667 -80.002 -82.999 -80.002 -138.999c0 -42 15.833 -75 47.5 -99s80.834 -36 147.501 -36c80.667 0 144.167 13.667 190.5 41s69.5 62.666 69.5 105.999c0 19.333 -3.33301 35.5 -10 48.5s-15.167 23.167 -25.5 30.5s-25.166 13.166 -44.499 17.499
s-37.833 7.33301 -55.5 9s-41.167 3.5 -70.5 5.5c-14.667 0.666992 -25.667 1.33398 -33 2.00098c-60.667 5.33301 -106 10 -136 14z" />
    <glyph glyph-name="h" unicode="h" horiz-adv-x="1138" 
d="M1012 0l-272.999 -0.000976562v643c0 51.333 -10.167 89.5 -30.5 114.5s-53.833 37.5 -100.5 37.5c-24.667 0 -49 -5 -73 -15s-45.167 -22.833 -63.5 -38.5s-32.833 -29 -43.5 -40s-19.667 -21.5 -27 -31.5v-670h-272v1475h272v-598c89.333 96.667 193.333 145 312 145
c53.333 0 99.666 -8.16699 138.999 -24.5s70.333 -39.333 93 -69s39.5 -63.667 50.5 -102s16.5 -81.166 16.5 -128.499v-698z" />
    <glyph glyph-name="i" unicode="i" horiz-adv-x="573" 
d="M455 1290c0 -44.667 -16.167 -83.167 -48.5 -115.5s-72.166 -48.5 -119.499 -48.5s-86.833 16.167 -118.5 48.5s-47.5 70.833 -47.5 115.5c0 44 15.833 81.667 47.5 113s71.167 47 118.5 47s87.166 -15.833 119.499 -47.5s48.5 -69.167 48.5 -112.5zM424 0h-274v997h274
v-997z" />
    <glyph glyph-name="j" unicode="j" horiz-adv-x="563" 
d="M449 1290c0 -44.667 -16 -83.167 -48 -115.5s-72 -48.5 -120 -48.5c-47.333 0 -86.833 16.167 -118.5 48.5s-47.5 70.833 -47.5 115.5c0 44 15.833 81.667 47.5 113s71.167 47 118.5 47c48 0 88 -15.667 120 -47s48 -69 48 -113zM420 -70
c0 -271.333 -114.667 -407.001 -344 -407.001c-78.667 0 -138 8 -178 24l47 211c24 -8 50 -12 78 -12c46 0 77.833 15.833 95.5 47.5s26.5 86.834 26.5 165.501v1038h275v-1067z" />
    <glyph glyph-name="k" unicode="k" horiz-adv-x="1058" 
d="M401 489v-489h-272v1475h272v-879l330 401h297l-369 -444l377 -553h-315z" />
    <glyph glyph-name="l" unicode="l" horiz-adv-x="563" 
d="M418 0h-273v1475h273v-1475z" />
    <glyph glyph-name="m" unicode="m" horiz-adv-x="1685" 
d="M954 864c44.667 51.333 92.167 90.502 142.5 117.502s109.5 40.5 177.5 40.5c51.333 0 95.666 -8.16699 132.999 -24.5s67 -39.333 89 -69s38 -63.5 48 -101.5s15 -81 15 -129v-698h-273v643c0 51.333 -9 89.5 -27 114.5s-48.667 37.5 -92 37.5
c-62 0 -124 -37.667 -186 -113v-682h-272v643c0 101.333 -39 152 -117 152c-18.667 0 -37.5 -3.83301 -56.5 -11.5s-34.333 -15.334 -46 -23.001s-24.667 -19.167 -39 -34.5s-23.166 -25.166 -26.499 -29.499l-18 -24.5v-672h-273v997h266v-123
c16.667 18.667 32.334 34.667 47.001 48s34.667 28.666 60 45.999s54.333 30.666 87 39.999s67.667 14 105 14c129.333 0 214.666 -52.667 255.999 -158z" />
    <glyph glyph-name="n" unicode="n" horiz-adv-x="1140" 
d="M1016 0l-272.999 0.00292969v643c0 51.333 -10.167 89.5 -30.5 114.5s-54.5 37.5 -102.5 37.5c-24.667 0 -48.834 -5 -72.501 -15s-44.667 -22.833 -63 -38.5s-32.333 -28.834 -42 -39.501s-18.5 -21.334 -26.5 -32.001v-670h-273v997h266v-125c90 100 196 150 318 150
c103.333 0 179 -29.333 227 -88s72 -137.334 72 -236.001v-698z" />
    <glyph glyph-name="o" unicode="o" horiz-adv-x="1126" 
d="M1065 504c0 -51.333 -6.16602 -101.835 -18.499 -151.502s-31.833 -97.5 -58.5 -143.5s-59.334 -86.167 -98.001 -120.5s-86.334 -61.833 -143.001 -82.5s-118.667 -31 -186 -31s-129 9.83301 -185 29.5s-103.167 46.334 -141.5 80.001s-70.833 72.834 -97.5 117.501
s-46 91.667 -58 141s-18 100.333 -18 153s6 103.667 18 153s31.167 96.833 57.5 142.5s58.5 85.5 96.5 119.5s85 61 141 81s117.667 30 185 30s129.333 -9.83301 186 -29.5s104.334 -46 143.001 -79s71.5 -71.833 98.5 -116.5s46.833 -91.667 59.5 -141s19 -100 19 -152z
M776.001 495.998c0 98.667 -18.167 177.167 -54.5 235.5s-91.833 87.5 -166.5 87.5c-136.667 0 -205 -105 -205 -315c0 -98.667 17.5 -177 52.5 -235s89.167 -87 162.5 -87c140.667 0 211 104.667 211 314z" />
    <glyph glyph-name="p" unicode="p" horiz-adv-x="1144" 
d="M1081 500c0 -156.667 -41.667 -283.333 -125 -380s-190.333 -145 -321 -145c-98.667 0 -175 24 -229 72v-496h-273v1446h266v-104c69.333 86 161.666 129 276.999 129c126.667 0 225.834 -45.5 297.501 -136.5s107.5 -219.5 107.5 -385.5zM793 500.001
c0 96 -16.832 170.833 -50.499 224.5s-83.167 80.5 -148.5 80.5c-44 0 -82.333 -11.333 -115 -34s-57 -45.667 -73 -69v-448c51.333 -45.333 108.666 -68 171.999 -68c69.333 0 122.5 27.5 159.5 82.5s55.5 132.167 55.5 231.5z" />
    <glyph glyph-name="q" unicode="q" horiz-adv-x="1134" 
d="M1008 -446h-273v526c-67.333 -70 -148.333 -105 -243 -105c-128.667 0 -231.5 44.667 -308.5 134s-115.5 217 -115.5 383c0 110.667 23.5 206.5 70.5 287.5s110.167 141.667 189.5 182s169.333 60.5 270 60.5c157.333 0 294 -24.667 410 -74v-1394zM735 266
l0.000976562 520c-46 15.333 -91 23 -135 23c-78 0 -138.5 -27.5 -181.5 -82.5s-64.5 -133.167 -64.5 -234.5c0 -96 17.667 -170.333 53 -223s88.666 -79 159.999 -79c37.333 0 70.833 8.5 100.5 25.5s52.167 33.833 67.5 50.5z" />
    <glyph glyph-name="r" unicode="r" horiz-adv-x="798" 
d="M793 995l-66 -237c-23.333 14.667 -58 22 -104 22c-28 0 -54.667 -5.5 -80 -16.5s-47 -25.333 -65 -43s-32.5 -33.667 -43.5 -48s-20.5 -28.833 -28.5 -43.5v-629h-273v997h273v-135c26 44.667 60 82.5 102 113.5s91.667 46.5 149 46.5c56 0 101.333 -9 136 -27z" />
    <glyph glyph-name="s" unicode="s" horiz-adv-x="860" 
d="M803 295c0 -103.333 -34.668 -182.499 -104.001 -237.499s-166.333 -82.5 -291 -82.5c-142.667 0 -261 31.667 -355 95l92 190c78.667 -54.667 160.667 -82 246 -82c52.667 0 93.167 7.66699 121.5 23s42.5 37.666 42.5 66.999c0 13.333 -3.83301 25.166 -11.5 35.499
s-20.167 20 -37.5 29s-34.833 17.167 -52.5 24.5l-71 29.5c-29.667 12.333 -56.167 24.166 -79.5 35.499c-75.333 35.333 -131.333 75.333 -168 120s-55 103 -55 175c0 92.667 34 166.667 102 222s158.333 83 271 83c124 0 230.333 -26.667 319 -80l-96 -186
c-65.333 42 -136.333 63 -213 63c-91.333 0 -137 -29.333 -137 -88c0 -11.333 2.66699 -21.5 8 -30.5s11.5 -16.667 18.5 -23s18.167 -13.166 33.5 -20.499s28.5 -13.166 39.5 -17.499l50.5 -19c22.667 -8.33301 40.667 -15.166 54 -20.499
c34.667 -14.667 64.5 -28.334 89.5 -41.001s49.833 -28 74.5 -46s44.334 -37 59.001 -57s26.667 -43.667 36 -71s14 -57.333 14 -90z" />
    <glyph glyph-name="t" unicode="t" horiz-adv-x="792" 
d="M199 795l-159.999 -0.000976562v202h160v289h270v-289h233v-202h-233v-455c0 -50 7.33301 -86 22 -108s40.667 -33 78 -33c46 0 89.667 12.333 131 37l64 -203c-68.667 -38.667 -152 -58 -250 -58c-112.667 0 -193.334 26.833 -242.001 80.5s-73 130.834 -73 231.501v508
z" />
    <glyph glyph-name="u" unicode="u" horiz-adv-x="1140" 
d="M125 997l272 0.000976562v-643c0 -51.333 10.167 -89.333 30.5 -114s54.5 -37 102.5 -37c70 0 138.333 41.667 205 125v669h273v-710c0 -106 8.66699 -201.667 26 -287h-268c-11.333 39.333 -18.333 83.666 -21 132.999c-82 -105.333 -189 -158 -321 -158
c-103.333 0 -179 29.5 -227 88.5s-72 137.5 -72 235.5v698z" />
    <glyph glyph-name="v" unicode="v" horiz-adv-x="1038" 
d="M522 338h4l213 659h277l-369 -997h-256l-371 997h295z" />
    <glyph glyph-name="w" unicode="w" horiz-adv-x="1521" 
d="M1495 997l-285 -997h-245l-205 668h-4l-205 -668h-246l-282 997h292l152 -635h4l170 635h252l170 -639h4l156 639h272z" />
    <glyph glyph-name="x" unicode="x" horiz-adv-x="1046" 
d="M375 514l-330 483h307c122 -182.667 183 -274.667 183 -276l157 276h281l-309 -467l352 -530h-307l-207 324l-189 -324h-280z" />
    <glyph glyph-name="y" unicode="y" horiz-adv-x="1062" 
d="M406 20l-374.998 977.001h291l221 -657h10l203 657h280l-411 -1103c-23.333 -63.333 -47.333 -116.333 -72 -159s-54.834 -81 -90.501 -115s-78.334 -59 -128.001 -75s-107.834 -24 -174.501 -24c-62.667 0 -114 6 -154 18l39 215c23.333 -6.66699 55.333 -10 96 -10
c64.667 0 113.334 14.167 146.001 42.5s60 72.166 82 131.499z" />
    <glyph glyph-name="z" unicode="z" horiz-adv-x="940" 
d="M850 0h-770v147l434 646h-414v204h746v-157l-432 -635h436v-205z" />
    <glyph glyph-name="braceleft" unicode="{" horiz-adv-x="831" 
d="M776 -330l-246.001 -0.000976562c-65.333 0 -122.166 22.167 -170.499 66.5s-72.5 106.833 -72.5 187.5v350c0 64.667 -19.333 114.834 -58 150.501s-97.334 54.5 -176.001 56.5v205c156 4 234 73 234 207v330c0 82 23.833 144.5 71.5 187.5s105.5 64.5 173.5 64.5h244
v-203h-127c-39.333 0 -66.166 -11.333 -80.499 -34s-21.5 -57.667 -21.5 -105v-299c0 -126 -62.333 -207.333 -187 -244v-4c124.667 -40 187 -126 187 -258v-318c0 -51.333 6.5 -87 19.5 -107s40.5 -30 82.5 -30h127v-203z" />
    <glyph glyph-name="bar" unicode="|" horiz-adv-x="585" 
d="M414 -512h-240v2048h240v-2048z" />
    <glyph glyph-name="braceright" unicode="}" horiz-adv-x="831" 
d="M53 1475h247.998c65.333 0 122.333 -22.167 171 -66.5s73 -106.833 73 -187.5v-328c0 -134 77.667 -203 233 -207v-205c-155.333 -4 -233 -73 -233 -207v-352c0 -82 -24.167 -144.5 -72.5 -187.5s-106.166 -64.5 -173.499 -64.5h-246v203h127
c40.667 0 68.334 11.5 83.001 34.5s22 57.833 22 104.5v322c0 69.333 16.167 123.166 48.5 161.499s78.166 65.833 137.499 82.5v4c-59.333 18.667 -105.166 48.334 -137.499 89.001s-48.5 97 -48.5 169v295c0 51.333 -6.66699 87 -20 107s-41 30 -83 30h-129v203z" />
    <glyph glyph-name="asciitilde" unicode="~" horiz-adv-x="1198" 
d="M1120 485c-36.667 -39.333 -82.832 -73.667 -138.499 -103s-116.5 -44 -182.5 -44c-45.333 0 -87.833 6.16699 -127.5 18.5s-71.667 26 -96 41s-53.5 28.667 -87.5 41s-69 18.5 -105 18.5c-28 0 -55 -5.33301 -81 -16s-45.167 -20.667 -57.5 -30s-26.833 -22 -43.5 -38
l-123 162c93.333 96.667 199 145 317 145c41.333 0 80.666 -6.16699 117.999 -18.5s68 -26 92 -41s54.333 -28.667 91 -41s75 -18.5 115 -18.5c64.667 0 126.667 28 186 84z" />
    <glyph glyph-name="nbspace" unicode="&#xa0;" horiz-adv-x="518" 
 />
    <glyph glyph-name="exclamdown" unicode="&#xa1;" horiz-adv-x="610" 
d="M139 854c0 46.667 16.333 86.334 49 119.001s73.667 49 123 49s90.333 -16.333 123 -49s49 -72.334 49 -119.001c0 -46 -16.333 -85.167 -49 -117.5s-73.667 -48.5 -123 -48.5s-90.333 16.167 -123 48.5s-49 71.5 -49 117.5zM152 -360l51 901h217l51 -901h-319z" />
    <glyph glyph-name="cent" unicode="&#xa2;" horiz-adv-x="937" 
d="M647 1020c95.333 -7.33301 176.666 -33.335 243.999 -78.002l-88 -186c-61.333 39.333 -131 59 -209 59s-138.167 -28 -180.5 -84s-63.5 -131 -63.5 -225c0 -96 21.167 -173.333 63.5 -232s104.5 -88 186.5 -88c26.667 0 51.834 2 75.501 6s45.667 10.333 66 19
s34 14.834 41 18.501s17.833 9.83398 32.5 18.501l84 -182c-74.667 -49.333 -158.667 -78 -252 -86v-232h-227v246c-112.667 29.333 -200.667 88.666 -264 177.999s-95 198 -95 326c0 131.333 32.333 240.333 97 327s152 145.334 262 176.001v226h227v-207z" />
    <glyph glyph-name="sterling" unicode="&#xa3;" horiz-adv-x="1050" 
d="M584 750l294.999 -0.00488281v-199h-271v-23c0 -71.333 -12.5 -133.666 -37.5 -186.999s-55.5 -94.666 -91.5 -123.999h479v-217h-827v174c68 34 118.5 82.5 151.5 145.5s49.5 130.5 49.5 202.5c0 12.667 -0.666992 22.334 -2 29.001h-203v199h174
c-18 92.667 -27 172.334 -27 239.001c0 121.333 39 218.333 117 291s187.333 109 328 109c112.667 0 210.334 -25.333 293.001 -76l-109 -191l-43.5 22c-11 5.33301 -28.833 10.833 -53.5 16.5s-51 8.5 -79 8.5c-112 0 -168 -67.333 -168 -202
c0 -47.333 8.33301 -119.666 25 -216.999z" />
    <glyph glyph-name="currency" unicode="&#xa4;" horiz-adv-x="1202" 
d="M188 733l-118.002 -0.000976562v189h145c16.667 68 40.834 129.667 72.501 185s71 104.333 118 147s104.167 75.834 171.5 99.501s142 35.5 224 35.5c86 0 156.5 -7.66699 211.5 -23s104.5 -37.333 148.5 -66l-114 -213c-22.667 13.333 -41.5 23.5 -56.5 30.5
s-39.667 14.667 -74 23s-70.833 12.5 -109.5 12.5c-148.667 0 -246.334 -77 -293.001 -231h326v-189h-355v-41c0 -34 0.666992 -59.333 2 -76h353v-188h-320c47.333 -143.333 143 -215 287 -215c94.667 0 180 28 256 84l113 -205c-30 -21.333 -57.833 -39 -83.5 -53
s-65.5 -28.167 -119.5 -42.5s-112.667 -21.5 -176 -21.5c-81.333 0 -155.166 11.5 -221.499 34.5s-122.666 55.167 -168.999 96.5s-84.833 88.833 -115.5 142.5s-54.667 113.5 -72 179.5h-149v188h120c-1.33301 15.333 -2 38 -2 68v49z" />
    <glyph glyph-name="yen" unicode="&#xa5;" horiz-adv-x="1193" 
d="M750 174v-174h-289v174h-332v191h332v118h-332v189h248l-369 692h322l286 -586h5l286 586h281l-357 -692h252v-189h-333v-118h333v-191h-333z" />
    <glyph glyph-name="brokenbar" unicode="&#xa6;" 
d="M2048 1475v-1905h-1905v1905h1905zM295 1323v-1599h1599v1599h-1599zM918 565l403 494h186l-411 -496l436 -563h-199l-415 537v-537h-162v1059h162v-494z" />
    <glyph glyph-name="section" unicode="&#xa7;" horiz-adv-x="952" 
d="M719 240c48 -70 71.999 -137.004 71.999 -201.004c0 -58.667 -10.833 -110.834 -32.5 -156.501s-51.167 -82.334 -88.5 -110.001s-79.5 -48.5 -126.5 -62.5s-97.167 -21 -150.5 -21c-118.667 0 -211.334 23 -278.001 69l84 197c52.667 -34 107 -51 163 -51
c48.667 0 86.5 12 113.5 36s40.5 56.333 40.5 97c0 22.667 -8 46.5 -24 71.5s-36.833 49.667 -62.5 74l-85 77c-31 27 -62 55.833 -93 86.5s-59.333 62.334 -85 95.001s-46.5 69.834 -62.5 111.501s-24 84.167 -24 127.5c0 58 14.333 110.333 43 157s67 85 115 115
c-46.667 72 -70 141.667 -70 209c0 102.667 35.5 184.667 106.5 246s158.5 92 262.5 92c118 0 213.333 -26 286 -78l-100 -178c-14.667 10 -26.167 17.333 -34.5 22s-24.166 10.334 -47.499 17.001s-48 10 -74 10c-40.667 0 -72 -11.333 -94 -34s-33 -51.667 -33 -87
c0 -24.667 7.83301 -50.167 23.5 -76.5s36.167 -52.166 61.5 -77.499s53.333 -51.666 84 -78.999s61.334 -56.666 92.001 -87.999s58.667 -63.833 84 -97.5s45.833 -71.667 61.5 -114s23.5 -85.833 23.5 -130.5c0 -104 -50.333 -193.333 -151 -268zM368.999 802.996
c-20.667 -24 -31.0029 -58.998 -31.0029 -104.998c0 -32.667 16.5 -68.834 49.5 -108.501s81.167 -88.834 144.5 -147.501l41 -41c24.667 26.667 37 59 37 97c0 10.667 -1.66699 21.5 -5 32.5s-9.66602 23.5 -18.999 37.5s-17.833 26.167 -25.5 36.5
s-20.167 24.5 -37.5 42.5l-40.5 42l-49 49l-50.5 50c-1.33301 1.33301 -3.66602 3.83301 -6.99902 7.5s-5.66602 6.16699 -6.99902 7.5z" />
    <glyph glyph-name="dieresis" unicode="&#xa8;" horiz-adv-x="1024" 
d="M879 1257c0 -41.333 -14.5 -76.166 -43.5 -104.499s-65.167 -42.5 -108.5 -42.5s-79.5 14.167 -108.5 42.5s-43.5 63.166 -43.5 104.499c0 40 14.5 74.333 43.5 103s65.167 43 108.5 43s79.5 -14.333 108.5 -43s43.5 -63 43.5 -103zM449 1257
c0 -41.333 -14.5 -76.166 -43.5 -104.499s-65.167 -42.5 -108.5 -42.5s-79.5 14.167 -108.5 42.5s-43.5 63.166 -43.5 104.499c0 40 14.5 74.333 43.5 103s65.167 43 108.5 43s79.5 -14.333 108.5 -43s43.5 -63 43.5 -103z" />
    <glyph glyph-name="copyright" unicode="&#xa9;" horiz-adv-x="1712" 
d="M1618 735c0 -103.333 -20.167 -202.166 -60.5 -296.499s-94.666 -175.666 -162.999 -243.999s-149.666 -122.666 -243.999 -162.999s-193.166 -60.5 -296.499 -60.5s-202 20.167 -296 60.5s-175 94.666 -243 162.999s-122.167 149.666 -162.5 243.999
s-60.5 193.166 -60.5 296.499s20.167 202.166 60.5 296.499s94.5 175.666 162.5 243.999s149 122.666 243 162.999s192.667 60.5 296 60.5s202.166 -20.167 296.499 -60.5s175.666 -94.666 243.999 -162.999s122.666 -149.666 162.999 -243.999s60.5 -193.166 60.5 -296.499
zM1450 735c0 179.333 -55.999 325.167 -167.999 437.5s-254.667 168.5 -428 168.5c-172.667 0 -314.834 -56.167 -426.501 -168.5s-167.5 -258.166 -167.5 -437.499c0 -180.667 55.833 -326.834 167.5 -438.501s253.834 -167.5 426.501 -167.5
c85.333 0 164.666 14.5 237.999 43.5s136.333 69.667 189 122s94 116.333 124 192s45 158.5 45 248.5zM1194 408.001c-95.333 -88 -204 -131.999 -326 -131.999c-128.667 0 -235.834 43.667 -321.501 131s-128.5 196.666 -128.5 327.999
c0 130.667 43.5 239.834 130.5 327.501s194.833 131.5 323.5 131.5c116 0 217.333 -37 304 -111l-109 -153c-16.667 12.667 -31.167 23 -43.5 31s-32 16.333 -59 25s-55.5 13 -85.5 13c-70.667 0 -127.667 -25.167 -171 -75.5s-65 -111.833 -65 -184.5
c0 -78.667 23 -144 69 -196s103.667 -78 173 -78c32 0 63 6 93 18s51.333 22.667 64 32s29.334 22.666 50.001 39.999z" />
    <glyph glyph-name="ordfeminine" unicode="&#xaa;" horiz-adv-x="772" 
d="M479 657c-6.66699 17.333 -11.334 39.998 -14.001 67.998c-54.667 -57.333 -117.667 -86 -189 -86c-66.667 0 -121.5 18.167 -164.5 54.5s-64.5 86.5 -64.5 150.5c0 63.333 23.5 112.833 70.5 148.5s106.167 57.834 177.5 66.501c26.667 23.333 79.334 35 158.001 35v34
c0 32.667 -8 57 -24 73s-44.333 24 -85 24c-61.333 0 -122 -22.667 -182 -68c-61.333 83.333 -92 126.333 -92 129c79.333 68.667 178.333 103 297 103c102.667 0 178.167 -21.167 226.5 -63.5s72.5 -110.166 72.5 -203.499v-252c0 -84 8 -155 24 -213h-211zM453 966.998
c-61.333 0 -101.667 -9.66797 -121 -29.001c-54.667 -11.333 -82 -37.333 -82 -78c0 -21.333 7.33301 -38.166 22 -50.499s34.667 -18.5 60 -18.5c48 0 88.333 18.333 121 55v121z" />
    <glyph glyph-name="guillemotleft" unicode="&#xab;" horiz-adv-x="1103" 
d="M801 502l243 -393h-278l-246 393l246 395h278zM346 502l244 -393h-279l-245 393l245 395h279z" />
    <glyph glyph-name="logicalnot" unicode="&#xac;" 
d="M2048 1475v-1905h-1905v1905h1905zM295 1323v-1599h1599v1599h-1599zM1174 0h-158.001l-230 627l-47 141h-4c-4 -50 -8.66699 -99 -14 -147l-78 -621h-149l145 1055h158l239 -680l64 -189h4c18.667 67.333 38.334 130.333 59.001 189l246 680h156l145 -1055h-170l-80 621
l-16 147h-4c-12 -47.333 -26.333 -94.333 -43 -141z" />
    <glyph glyph-name="registered" unicode="&#xae;" horiz-adv-x="1712" 
d="M1618 735c0 -103.333 -20.167 -202.166 -60.5 -296.499s-94.666 -175.666 -162.999 -243.999s-149.666 -122.666 -243.999 -162.999s-193.166 -60.5 -296.499 -60.5s-202 20.167 -296 60.5s-175 94.666 -243 162.999s-122.167 149.666 -162.5 243.999
s-60.5 193.166 -60.5 296.499s20.167 202.166 60.5 296.499s94.5 175.666 162.5 243.999s149 122.666 243 162.999s192.667 60.5 296 60.5s202.166 -20.167 296.499 -60.5s175.666 -94.666 243.999 -162.999s122.666 -149.666 162.999 -243.999s60.5 -193.166 60.5 -296.499
zM1450 735c0 179.333 -55.999 325.167 -167.999 437.5s-254.667 168.5 -428 168.5c-172.667 0 -314.834 -56.167 -426.501 -168.5s-167.5 -258.166 -167.5 -437.499c0 -180.667 55.833 -326.834 167.5 -438.501s253.834 -167.5 426.501 -167.5
c85.333 0 164.666 14.5 237.999 43.5s136.333 69.667 189 122s94 116.333 124 192s45 158.5 45 248.5zM1231 319.001h-210.999l-162 271c-18.667 32 -34.834 53.333 -48.501 64s-32.167 16 -55.5 16v-351h-191v855h303c98 0 173.333 -22.333 226 -67s79 -105.667 79 -183
c0 -64 -17.833 -115 -53.5 -153s-83.167 -63 -142.5 -75c29.333 -22 63.333 -64.333 102 -127zM979.002 913.001c0 76.667 -44.333 115 -133 115h-92v-227h77c98.667 0 148 37.333 148 112z" />
    <glyph glyph-name="macron" unicode="&#xaf;" horiz-adv-x="1024" 
d="M801 1151h-580v195h580v-195z" />
    <glyph glyph-name="degree" unicode="&#xb0;" horiz-adv-x="708" 
d="M647 1100c0 -80 -28.5 -147.833 -85.5 -203.5s-126.167 -83.5 -207.5 -83.5c-80.667 0 -149.667 28 -207 84s-86 123.667 -86 203c0 80.667 28.667 149 86 205s126.333 84 207 84s149.667 -28 207 -84s86 -124.333 86 -205zM479 1100c0 39.333 -11.667 71.666 -35 96.999
s-53.333 38 -90 38s-66.667 -12.667 -90 -38s-35 -57.666 -35 -96.999c0 -38 11.667 -69.667 35 -95s53.333 -38 90 -38s66.667 12.667 90 38s35 57 35 95z" />
    <glyph glyph-name="plusminus" unicode="&#xb1;" horiz-adv-x="1826" 
d="M1057 795l0.00195312 -795h-271v795h-325v-795h-273v795h-153v202h153v95c0 120.667 37 216.667 111 288s177 107 309 107c54 0 102.833 -4.66699 146.5 -14s76.167 -19 97.5 -29s44 -23 68 -39c82 62.667 195.333 94 340 94c83.333 0 162.666 -6 237.999 -18
s135.666 -26.333 180.999 -43v-1438h-272v1253c-38 15.333 -93.333 23 -166 23c-122.667 0 -184 -67 -184 -201v-78h217v-202h-217zM786.002 997v103c0 38 4.33301 76 13 114c-40.667 32 -93.334 48 -158.001 48c-59.333 0 -104.166 -15.833 -134.499 -47.5
s-45.5 -84.167 -45.5 -157.5v-60h325z" />
    <glyph glyph-name="twosuperior" unicode="&#xb2;" 
d="M2048 1475v-1905h-1905v1905h1905zM295 1323v-1599h1599v1599h-1599zM918 565l403 494h186l-411 -496l436 -563h-199l-415 537v-537h-162v1059h162v-494z" />
    <glyph glyph-name="threesuperior" unicode="&#xb3;" 
d="M2048 1475v-1905h-1905v1905h1905zM295 1323v-1599h1599v1599h-1599zM918 565l403 494h186l-411 -496l436 -563h-199l-415 537v-537h-162v1059h162v-494z" />
    <glyph glyph-name="acute" unicode="&#xb4;" horiz-adv-x="1024" 
d="M297 1108l170 276h352l-287 -276h-235z" />
    <glyph glyph-name="paragraph" unicode="&#xb6;" horiz-adv-x="1355" 
d="M1286 1151l-152.999 0.000976562v-1513h-236v1513h-160v-1513h-239v878c-118.667 0 -218.334 39 -299.001 117s-121 179.667 -121 305s40.5 227.666 121.5 306.999s180.5 119 298.5 119h788v-213z" />
    <glyph glyph-name="periodcentered" unicode="&#xb7;" horiz-adv-x="528" 
d="M444 594c0 -48.667 -17.5 -90.167 -52.5 -124.5s-77.5 -51.5 -127.5 -51.5s-92.5 17.167 -127.5 51.5s-52.5 75.833 -52.5 124.5s17.5 90.167 52.5 124.5s77.5 51.5 127.5 51.5s92.5 -17.167 127.5 -51.5s52.5 -75.833 52.5 -124.5z" />
    <glyph glyph-name="cedilla" unicode="&#xb8;" horiz-adv-x="1011" 
d="M725 -281c0 -56.667 -23.6689 -102.502 -71.002 -137.502s-109 -52.5 -185 -52.5c-65.333 0 -121.333 10.333 -168 31l35 123c30.667 -15.333 65.334 -23 104.001 -23c30.667 0 54.834 6 72.501 18s26.5 29.333 26.5 52c0 56.667 -48.667 82.334 -146 77.001l74 199h156
l-43 -119c43.333 -9.33301 78.333 -28.666 105 -57.999s40 -66 40 -110z" />
    <glyph glyph-name="onesuperior" unicode="&#xb9;" 
d="M2048 1475v-1905h-1905v1905h1905zM295 1323v-1599h1599v1599h-1599zM918 565l403 494h186l-411 -496l436 -563h-199l-415 537v-537h-162v1059h162v-494z" />
    <glyph glyph-name="ordmasculine" unicode="&#xba;" horiz-adv-x="839" 
d="M786 1018c0 -66.667 -12.833 -127.999 -38.5 -183.999s-66.834 -102.5 -123.501 -139.5s-124.667 -55.5 -204 -55.5c-60.667 0 -114.834 10.333 -162.501 31s-86.167 48.5 -115.5 83.5s-51.5 74.5 -66.5 118.5s-22.5 90.667 -22.5 140s7.5 96.166 22.5 140.499
s37 84.333 66 120s67.333 64 115 85s101.5 31.5 161.5 31.5c59.333 0 112.833 -10.167 160.5 -30.5s86.334 -47.833 116.001 -82.5s52.334 -74 68.001 -118s23.5 -90.667 23.5 -140zM414 1233c-49.333 0 -83.833 -18.167 -103.5 -54.5s-29.5 -89.833 -29.5 -160.5
c0 -147.333 47 -221 141 -221c49.333 0 84.5 18.333 105.5 55s31.5 90 31.5 160c0 147.333 -48.333 221 -145 221z" />
    <glyph glyph-name="guillemotright" unicode="&#xbb;" horiz-adv-x="1103" 
d="M1038 504l-247 -395h-277l244 395l-244 393h277zM582 504l-246 -395h-279l246 395l-246 393h279z" />
    <glyph glyph-name="onequarter" unicode="&#xbc;" 
d="M2048 1475v-1905h-1905v1905h1905zM295 1323v-1599h1599v1599h-1599zM918 565l403 494h186l-411 -496l436 -563h-199l-415 537v-537h-162v1059h162v-494z" />
    <glyph glyph-name="onehalf" unicode="&#xbd;" 
d="M2048 1475v-1905h-1905v1905h1905zM295 1323v-1599h1599v1599h-1599zM918 565l403 494h186l-411 -496l436 -563h-199l-415 537v-537h-162v1059h162v-494z" />
    <glyph glyph-name="threequarters" unicode="&#xbe;" 
d="M2048 1475v-1905h-1905v1905h1905zM295 1323v-1599h1599v1599h-1599zM918 565l403 494h186l-411 -496l436 -563h-199l-415 537v-537h-162v1059h162v-494z" />
    <glyph glyph-name="questiondown" unicode="&#xbf;" horiz-adv-x="858" 
d="M350 854c0 46.667 16.333 86.334 49 119.001s73.667 49 123 49s90.333 -16.333 123 -49s49 -72.334 49 -119.001c0 -46 -16.333 -85.167 -49 -117.5s-73.667 -48.5 -123 -48.5s-90.333 16.167 -123 48.5s-49 71.5 -49 117.5zM66 -33c0 40 5.50098 76.9971 16.501 110.997
s26.5 64 46.5 90s40 47.833 60 65.5s43 35.5 69 53.5c6 4.66699 19.167 13.834 39.5 27.501s33.166 22.667 38.499 27s14.333 12.166 27 23.499s21 21 25 29s8 18.333 12 31s6 26 6 40v82h237v-111c0 -60 -11 -107.667 -33 -143s-58 -68.666 -108 -99.999
c-50.667 -33.333 -87 -64.166 -109 -92.499s-33 -65.166 -33 -110.499c0 -101.333 60.333 -152 181 -152c52.667 0 111.334 15.667 176.001 47l94 -200c-88.667 -46.667 -195 -70 -319 -70c-138.667 0 -244.334 32.5 -317.001 97.5s-109 149.833 -109 254.5z" />
    <glyph glyph-name="Agrave" unicode="&#xc0;" horiz-adv-x="1392" 
d="M412 256l-90 -256h-291l520 1364h278l535 -1364h-315l-93 256h-544zM874 487l-116 326.001c-12.667 34.667 -25.167 71.667 -37.5 111s-21.5 70 -27.5 92l-9 33h-4c-20.667 -80.667 -44.667 -159.334 -72 -236.001l-114 -326h380zM919 1475h-233l-287 276h350z" />
    <glyph glyph-name="Aacute" unicode="&#xc1;" horiz-adv-x="1392" 
d="M412 256l-90 -256h-291l520 1364h278l535 -1364h-315l-93 256h-544zM874 487l-116 326.001c-12.667 34.667 -25.167 71.667 -37.5 111s-21.5 70 -27.5 92l-9 33h-4c-20.667 -80.667 -44.667 -159.334 -72 -236.001l-114 -326h380zM510 1475l170 276h352l-287 -276h-235z
" />
    <glyph glyph-name="Acircumflex" unicode="&#xc2;" horiz-adv-x="1392" 
d="M412 256l-90 -256h-291l520 1364h278l535 -1364h-315l-93 256h-544zM874 487l-116 326.001c-12.667 34.667 -25.167 71.667 -37.5 111s-21.5 70 -27.5 92l-9 33h-4c-20.667 -80.667 -44.667 -159.334 -72 -236.001l-114 -326h380zM1048 1477h-231l-131 135l-131 -135
h-231l260 326h208z" />
    <glyph glyph-name="Atilde" unicode="&#xc3;" horiz-adv-x="1392" 
d="M412 256l-90 -256h-291l520 1364h278l535 -1364h-315l-93 256h-544zM874 487l-116 326.001c-12.667 34.667 -25.167 71.667 -37.5 111s-21.5 70 -27.5 92l-9 33h-4c-20.667 -80.667 -44.667 -159.334 -72 -236.001l-114 -326h380zM1042 1641
c-24.667 -42 -57.167 -78.5 -97.5 -109.5s-86.166 -46.5 -137.499 -46.5c-34.667 0 -66.334 6 -95.001 18s-54.667 24 -78 36s-46.333 18 -69 18c-32 0 -68.667 -20.667 -110 -62l-125 109c23.333 41.333 55 77.333 95 108s85.333 46 136 46c35.333 0 67.333 -6 96 -18
s54.5 -24 77.5 -36s45.833 -18 68.5 -18c43.333 0 81.333 21 114 63z" />
    <glyph glyph-name="Adieresis" unicode="&#xc4;" horiz-adv-x="1392" 
d="M412 256l-90 -256h-291l520 1364h278l535 -1364h-315l-93 256h-544zM874 487l-116 326.001c-12.667 34.667 -25.167 71.667 -37.5 111s-21.5 70 -27.5 92l-9 33h-4c-20.667 -80.667 -44.667 -159.334 -72 -236.001l-114 -326h380zM1053 1624
c0 -41.333 -14.5 -76.166 -43.5 -104.499s-65.167 -42.5 -108.5 -42.5s-79.5 14.167 -108.5 42.5s-43.5 63.166 -43.5 104.499c0 40 14.5 74.333 43.5 103s65.167 43 108.5 43s79.5 -14.333 108.5 -43s43.5 -63 43.5 -103zM623 1624c0 -41.333 -14.5 -76.166 -43.5 -104.499
s-65.167 -42.5 -108.5 -42.5s-79.5 14.167 -108.5 42.5s-43.5 63.166 -43.5 104.499c0 40 14.5 74.333 43.5 103s65.167 43 108.5 43s79.5 -14.333 108.5 -43s43.5 -63 43.5 -103z" />
    <glyph glyph-name="Aring" unicode="&#xc5;" horiz-adv-x="1376" 
d="M911 1669c0 -61.333 -22.5 -113.166 -67.5 -155.499s-97.5 -63.5 -157.5 -63.5s-112.5 21.167 -157.5 63.5s-67.5 94.166 -67.5 155.499c0 60.667 22.5 112 67.5 154s97.5 63 157.5 63s112.5 -21 157.5 -63s67.5 -93.333 67.5 -154zM412 256l-90 -256h-291l520 1364h278
l535 -1364h-315l-93 256h-544zM780 1669c0 28.667 -8.5 53 -25.5 73s-39.833 30 -68.5 30s-51.5 -10 -68.5 -30s-25.5 -44.333 -25.5 -73s8.5 -53.167 25.5 -73.5s39.833 -30.5 68.5 -30.5s51.5 10.167 68.5 30.5s25.5 44.833 25.5 73.5zM874 487l-116 326.001
c-12.667 34.667 -25.167 71.667 -37.5 111s-21.5 70 -27.5 92l-9 33h-4c-20.667 -80.667 -44.667 -159.334 -72 -236.001l-114 -326h380z" />
    <glyph glyph-name="AE" unicode="&#xc6;" horiz-adv-x="1759" 
d="M420 289l-156 -289h-311l774 1364h901v-238h-502v-307h443v-225h-443v-356h516v-238h-800v289h-422zM842 514v551l-299 -551h299z" />
    <glyph glyph-name="Ccedilla" unicode="&#xc7;" horiz-adv-x="1261" 
d="M637 -12c-88.667 16 -168.335 45.9961 -239.002 89.9961s-128.334 97.333 -173.001 160s-78.667 131.834 -102 207.501s-35 155.167 -35 238.5c0 74.667 9.5 146.5 28.5 215.5s48 133.333 87 193s86.167 111.5 141.5 155.5s121.333 78.5 198 103.5s160 37.5 250 37.5
c162.667 0 299 -36.333 409 -109l-129 -211c-82.667 53.333 -177.667 80 -285 80c-123.333 0 -219.666 -43.333 -288.999 -130s-104 -195.667 -104 -327c0 -66 8.33301 -127.333 25 -184s41.167 -106.834 73.5 -150.501s74.166 -78 125.499 -103s109.333 -37.5 174 -37.5
c66.667 0 123.834 9.33301 171.501 28s93.5 44.334 137.5 77.001l119 -203c-41.333 -37.333 -101 -70.666 -179 -99.999s-162.667 -44 -254 -44l-32 -88c43.333 -9.33301 78.333 -28.666 105 -57.999s40 -66 40 -110c0 -56.667 -23.667 -102.5 -71 -137.5
s-109 -52.5 -185 -52.5c-65.333 0 -121.333 10.333 -168 31l35 123c30.667 -15.333 65.334 -23 104.001 -23c30.667 0 54.834 6 72.501 18s26.5 29.333 26.5 52c0 56.667 -48.667 82.334 -146 77.001z" />
    <glyph glyph-name="Egrave" unicode="&#xc8;" horiz-adv-x="1081" 
d="M971 0h-801v1364h786v-238h-501v-307h442v-225h-442v-356h516v-238zM790 1475h-233l-287 276h350z" />
    <glyph glyph-name="Eacute" unicode="&#xc9;" horiz-adv-x="1081" 
d="M971 0h-801v1364h786v-238h-501v-307h442v-225h-442v-356h516v-238zM391 1475l170 276h352l-287 -276h-235z" />
    <glyph glyph-name="Ecircumflex" unicode="&#xca;" horiz-adv-x="1081" 
d="M971 0h-801v1364h786v-238h-501v-307h442v-225h-442v-356h516v-238zM925 1477h-231l-131 135l-131 -135h-231l260 326h208z" />
    <glyph glyph-name="Edieresis" unicode="&#xcb;" horiz-adv-x="1081" 
d="M971 0h-801v1364h786v-238h-501v-307h442v-225h-442v-356h516v-238zM924 1624c0 -41.333 -14.5 -76.166 -43.5 -104.499s-65.167 -42.5 -108.5 -42.5s-79.5 14.167 -108.5 42.5s-43.5 63.166 -43.5 104.499c0 40 14.5 74.333 43.5 103s65.167 43 108.5 43
s79.5 -14.333 108.5 -43s43.5 -63 43.5 -103zM494 1624c0 -41.333 -14.5 -76.166 -43.5 -104.499s-65.167 -42.5 -108.5 -42.5s-79.5 14.167 -108.5 42.5s-43.5 63.166 -43.5 104.499c0 40 14.5 74.333 43.5 103s65.167 43 108.5 43s79.5 -14.333 108.5 -43
s43.5 -63 43.5 -103z" />
    <glyph glyph-name="Igrave" unicode="&#xcc;" horiz-adv-x="663" 
d="M471 0h-289v1364h289v-1364zM565 1475h-233l-287 276h350z" />
    <glyph glyph-name="Iacute" unicode="&#xcd;" horiz-adv-x="663" 
d="M471 0h-289v1364h289v-1364zM162 1475l170 276h352l-287 -276h-235z" />
    <glyph glyph-name="Icircumflex" unicode="&#xce;" horiz-adv-x="663" 
d="M471 0h-289v1364h289v-1364zM694 1477h-231l-131 135l-131 -135h-231l260 326h208z" />
    <glyph glyph-name="Idieresis" unicode="&#xcf;" horiz-adv-x="663" 
d="M471 0h-289v1364h289v-1364zM699 1624c0 -41.333 -14.5 -76.166 -43.5 -104.499s-65.167 -42.5 -108.5 -42.5s-79.5 14.167 -108.5 42.5s-43.5 63.166 -43.5 104.499c0 40 14.5 74.333 43.5 103s65.167 43 108.5 43s79.5 -14.333 108.5 -43s43.5 -63 43.5 -103zM269 1624
c0 -41.333 -14.5 -76.166 -43.5 -104.499s-65.167 -42.5 -108.5 -42.5s-79.5 14.167 -108.5 42.5s-43.5 63.166 -43.5 104.499c0 40 14.5 74.333 43.5 103s65.167 43 108.5 43s79.5 -14.333 108.5 -43s43.5 -63 43.5 -103z" />
    <glyph glyph-name="Eth" unicode="&#xd0;" horiz-adv-x="1445" 
d="M170 592h-133v203h133v569h412c131.333 0 247.166 -16 347.499 -48s181.833 -77.667 244.5 -137s109.667 -129 141 -209s47 -170 47 -270s-16 -191.833 -48 -275.5s-79.667 -157.5 -143 -221.5s-146.166 -113.833 -248.499 -149.5s-219.5 -53.5 -351.5 -53.5h-401v592z
M459 795h215v-203h-215v-361h135c153.333 0 268.833 38.833 346.5 116.5s116.5 192.5 116.5 344.5s-38.167 263.5 -114.5 334.5s-195.833 106.5 -358.5 106.5h-125v-338z" />
    <glyph glyph-name="Ntilde" unicode="&#xd1;" horiz-adv-x="1519" 
d="M1352 0h-265l-530 758c-23.333 31.333 -45.833 64.166 -67.5 98.499s-37.5 60.833 -47.5 79.5l-16 27h-4c5.33301 -63.333 8 -124.333 8 -183v-780h-262v1364h291l491 -707l72 -109c24 -38 42 -67.333 54 -88l18 -32h4c-5.33301 72.667 -8 144.334 -8 215.001v721h262
v-1364zM1116 1641c-24.667 -42 -57.167 -78.5 -97.5 -109.5s-86.166 -46.5 -137.499 -46.5c-34.667 0 -66.334 6 -95.001 18s-54.667 24 -78 36s-46.333 18 -69 18c-32 0 -68.667 -20.667 -110 -62l-125 109c23.333 41.333 55 77.333 95 108s85.333 46 136 46
c35.333 0 67.333 -6 96 -18s54.5 -24 77.5 -36s45.833 -18 68.5 -18c43.333 0 81.333 21 114 63z" />
    <glyph glyph-name="Ograve" unicode="&#xd2;" horiz-adv-x="1583" 
d="M1495 688c0 -94 -15.166 -183.331 -45.499 -267.998s-73.833 -160.334 -130.5 -227.001s-129.834 -119.667 -219.501 -159s-189.834 -59 -300.501 -59c-89.333 0 -172.333 12.667 -249 38s-143 60 -199 104s-104 95.667 -144 155s-69.833 123.666 -89.5 192.999
s-29.5 141 -29.5 215c0 94 15.667 183.167 47 267.5s75.833 159.5 133.5 225.5s131.834 118.5 222.501 157.5s191.334 58.5 302.001 58.5s211.167 -19.167 301.5 -57.5s164.166 -90.166 221.499 -155.499s101.5 -139.833 132.5 -223.5s46.5 -171.834 46.5 -264.501z
M1190 680.002c0 65.333 -7.83301 126.002 -23.5 182.002s-38.834 106.167 -69.501 150.5s-71.5 79.166 -122.5 104.499s-109.5 38 -175.5 38c-66.667 0 -126.167 -12.333 -178.5 -37s-94.666 -58.5 -126.999 -101.5s-56.833 -92.333 -73.5 -148s-25 -115.834 -25 -180.501
c0 -88 13.833 -167.333 41.5 -238s72.167 -128.5 133.5 -173.5s135.666 -67.5 222.999 -67.5c66.667 0 125.834 12.5 177.501 37.5s93.167 59.333 124.5 103s55 93.5 71 149.5s24 116.333 24 181zM1011 1475h-233l-287 276h350z" />
    <glyph glyph-name="Oacute" unicode="&#xd3;" horiz-adv-x="1583" 
d="M1495 688c0 -94 -15.166 -183.331 -45.499 -267.998s-73.833 -160.334 -130.5 -227.001s-129.834 -119.667 -219.501 -159s-189.834 -59 -300.501 -59c-89.333 0 -172.333 12.667 -249 38s-143 60 -199 104s-104 95.667 -144 155s-69.833 123.666 -89.5 192.999
s-29.5 141 -29.5 215c0 94 15.667 183.167 47 267.5s75.833 159.5 133.5 225.5s131.834 118.5 222.501 157.5s191.334 58.5 302.001 58.5s211.167 -19.167 301.5 -57.5s164.166 -90.166 221.499 -155.499s101.5 -139.833 132.5 -223.5s46.5 -171.834 46.5 -264.501z
M1190 680.002c0 65.333 -7.83301 126.002 -23.5 182.002s-38.834 106.167 -69.501 150.5s-71.5 79.166 -122.5 104.499s-109.5 38 -175.5 38c-66.667 0 -126.167 -12.333 -178.5 -37s-94.666 -58.5 -126.999 -101.5s-56.833 -92.333 -73.5 -148s-25 -115.834 -25 -180.501
c0 -88 13.833 -167.333 41.5 -238s72.167 -128.5 133.5 -173.5s135.666 -67.5 222.999 -67.5c66.667 0 125.834 12.5 177.501 37.5s93.167 59.333 124.5 103s55 93.5 71 149.5s24 116.333 24 181zM619.001 1475l170 276h352l-287 -276h-235z" />
    <glyph glyph-name="Ocircumflex" unicode="&#xd4;" horiz-adv-x="1583" 
d="M1495 688c0 -94 -15.166 -183.331 -45.499 -267.998s-73.833 -160.334 -130.5 -227.001s-129.834 -119.667 -219.501 -159s-189.834 -59 -300.501 -59c-89.333 0 -172.333 12.667 -249 38s-143 60 -199 104s-104 95.667 -144 155s-69.833 123.666 -89.5 192.999
s-29.5 141 -29.5 215c0 94 15.667 183.167 47 267.5s75.833 159.5 133.5 225.5s131.834 118.5 222.501 157.5s191.334 58.5 302.001 58.5s211.167 -19.167 301.5 -57.5s164.166 -90.166 221.499 -155.499s101.5 -139.833 132.5 -223.5s46.5 -171.834 46.5 -264.501z
M1190 680.002c0 65.333 -7.83301 126.002 -23.5 182.002s-38.834 106.167 -69.501 150.5s-71.5 79.166 -122.5 104.499s-109.5 38 -175.5 38c-66.667 0 -126.167 -12.333 -178.5 -37s-94.666 -58.5 -126.999 -101.5s-56.833 -92.333 -73.5 -148s-25 -115.834 -25 -180.501
c0 -88 13.833 -167.333 41.5 -238s72.167 -128.5 133.5 -173.5s135.666 -67.5 222.999 -67.5c66.667 0 125.834 12.5 177.501 37.5s93.167 59.333 124.5 103s55 93.5 71 149.5s24 116.333 24 181zM1155 1477h-231l-131 135l-131 -135h-231l260 326h208z" />
    <glyph glyph-name="Otilde" unicode="&#xd5;" horiz-adv-x="1583" 
d="M1495 688c0 -94 -15.166 -183.331 -45.499 -267.998s-73.833 -160.334 -130.5 -227.001s-129.834 -119.667 -219.501 -159s-189.834 -59 -300.501 -59c-89.333 0 -172.333 12.667 -249 38s-143 60 -199 104s-104 95.667 -144 155s-69.833 123.666 -89.5 192.999
s-29.5 141 -29.5 215c0 94 15.667 183.167 47 267.5s75.833 159.5 133.5 225.5s131.834 118.5 222.501 157.5s191.334 58.5 302.001 58.5s211.167 -19.167 301.5 -57.5s164.166 -90.166 221.499 -155.499s101.5 -139.833 132.5 -223.5s46.5 -171.834 46.5 -264.501z
M1190 680.002c0 65.333 -7.83301 126.002 -23.5 182.002s-38.834 106.167 -69.501 150.5s-71.5 79.166 -122.5 104.499s-109.5 38 -175.5 38c-66.667 0 -126.167 -12.333 -178.5 -37s-94.666 -58.5 -126.999 -101.5s-56.833 -92.333 -73.5 -148s-25 -115.834 -25 -180.501
c0 -88 13.833 -167.333 41.5 -238s72.167 -128.5 133.5 -173.5s135.666 -67.5 222.999 -67.5c66.667 0 125.834 12.5 177.501 37.5s93.167 59.333 124.5 103s55 93.5 71 149.5s24 116.333 24 181zM1149 1641c-24.667 -42 -57.167 -78.5 -97.5 -109.5
s-86.166 -46.5 -137.499 -46.5c-34.667 0 -66.334 6 -95.001 18s-54.667 24 -78 36s-46.333 18 -69 18c-32 0 -68.667 -20.667 -110 -62l-125 109c23.333 41.333 55 77.333 95 108s85.333 46 136 46c35.333 0 67.333 -6 96 -18s54.5 -24 77.5 -36s45.833 -18 68.5 -18
c43.333 0 81.333 21 114 63z" />
    <glyph glyph-name="Odieresis" unicode="&#xd6;" horiz-adv-x="1583" 
d="M1495 688c0 -94 -15.166 -183.331 -45.499 -267.998s-73.833 -160.334 -130.5 -227.001s-129.834 -119.667 -219.501 -159s-189.834 -59 -300.501 -59c-89.333 0 -172.333 12.667 -249 38s-143 60 -199 104s-104 95.667 -144 155s-69.833 123.666 -89.5 192.999
s-29.5 141 -29.5 215c0 94 15.667 183.167 47 267.5s75.833 159.5 133.5 225.5s131.834 118.5 222.501 157.5s191.334 58.5 302.001 58.5s211.167 -19.167 301.5 -57.5s164.166 -90.166 221.499 -155.499s101.5 -139.833 132.5 -223.5s46.5 -171.834 46.5 -264.501z
M1190 680.002c0 65.333 -7.83301 126.002 -23.5 182.002s-38.834 106.167 -69.501 150.5s-71.5 79.166 -122.5 104.499s-109.5 38 -175.5 38c-66.667 0 -126.167 -12.333 -178.5 -37s-94.666 -58.5 -126.999 -101.5s-56.833 -92.333 -73.5 -148s-25 -115.834 -25 -180.501
c0 -88 13.833 -167.333 41.5 -238s72.167 -128.5 133.5 -173.5s135.666 -67.5 222.999 -67.5c66.667 0 125.834 12.5 177.501 37.5s93.167 59.333 124.5 103s55 93.5 71 149.5s24 116.333 24 181zM1160 1624c0 -41.333 -14.5 -76.166 -43.5 -104.499
s-65.167 -42.5 -108.5 -42.5s-79.5 14.167 -108.5 42.5s-43.5 63.166 -43.5 104.499c0 40 14.5 74.333 43.5 103s65.167 43 108.5 43s79.5 -14.333 108.5 -43s43.5 -63 43.5 -103zM730.001 1624c0 -41.333 -14.5 -76.166 -43.5 -104.499s-65.167 -42.5 -108.5 -42.5
s-79.5 14.167 -108.5 42.5s-43.5 63.166 -43.5 104.499c0 40 14.5 74.333 43.5 103s65.167 43 108.5 43s79.5 -14.333 108.5 -43s43.5 -63 43.5 -103z" />
    <glyph glyph-name="multiply" unicode="&#xd7;" 
d="M2048 1475v-1905h-1905v1905h1905zM295 1323v-1599h1599v1599h-1599zM918 565l403 494h186l-411 -496l436 -563h-199l-415 537v-537h-162v1059h162v-494z" />
    <glyph glyph-name="Oslash" unicode="&#xd8;" horiz-adv-x="1583" 
d="M301 158c-68.667 66 -121.333 144.333 -158 235s-55 186.334 -55 287.001c0 94 15.667 183.167 47 267.5s75.833 159.5 133.5 225.5s131.834 118.5 222.501 157.5s191.334 58.5 302.001 58.5c122 0 233 -24 333 -72l129 184l172 -123l-131 -182
c64.667 -64.667 114 -141 148 -229s51 -181 51 -279c0 -94 -15.167 -183.333 -45.5 -268s-73.833 -160.334 -130.5 -227.001s-129.834 -119.667 -219.501 -159s-189.834 -59 -300.501 -59c-116.667 0 -224.667 22.667 -324 68c0.666992 0 -10.5 -16.167 -33.5 -48.5
l-69.5 -97.5l-34 -49l-170 121l22.5 31.5l43 61l49 69c13 18.333 19.167 27.5 18.5 27.5zM471.001 377l518.003 735.002c-52.667 30 -116 45 -190 45c-66.667 0 -126.334 -12.5 -179.001 -37.5s-95.334 -59.167 -128.001 -102.5s-57.334 -92.833 -74.001 -148.5
s-25 -115.834 -25 -180.501c0 -122.667 26 -226.334 78 -311.001zM1126 971.002c0 0.666992 -42.668 -59.5 -128.001 -180.5l-256 -362.5l-128 -182c50.667 -26 110.334 -39 179.001 -39c66.667 0 126 12.667 178 38s93.833 60 125.5 104s55.5 93.833 71.5 149.5
s24 116.167 24 181.5c0 116 -22 213 -66 291z" />
    <glyph glyph-name="Ugrave" unicode="&#xd9;" horiz-adv-x="1468" 
d="M1303 555c0 -188 -47.167 -331.667 -141.5 -431s-233.833 -149 -418.5 -149c-194.667 0 -340.167 47 -436.5 141s-144.5 231.333 -144.5 412v836h289v-811c0 -118 23.333 -204.167 70 -258.5s123 -81.5 229 -81.5c190.667 0 286 107.333 286 322v829h267v-809zM958 1475
h-233l-287 276h350z" />
    <glyph glyph-name="Uacute" unicode="&#xda;" horiz-adv-x="1468" 
d="M1303 555c0 -188 -47.167 -331.667 -141.5 -431s-233.833 -149 -418.5 -149c-194.667 0 -340.167 47 -436.5 141s-144.5 231.333 -144.5 412v836h289v-811c0 -118 23.333 -204.167 70 -258.5s123 -81.5 229 -81.5c190.667 0 286 107.333 286 322v829h267v-809zM553 1475
l170 276h352l-287 -276h-235z" />
    <glyph glyph-name="Ucircumflex" unicode="&#xdb;" horiz-adv-x="1468" 
d="M1303 555c0 -188 -47.167 -331.667 -141.5 -431s-233.833 -149 -418.5 -149c-194.667 0 -340.167 47 -436.5 141s-144.5 231.333 -144.5 412v836h289v-811c0 -118 23.333 -204.167 70 -258.5s123 -81.5 229 -81.5c190.667 0 286 107.333 286 322v829h267v-809zM1103 1477
h-231l-131 135l-131 -135h-231l260 326h208z" />
    <glyph glyph-name="Udieresis" unicode="&#xdc;" horiz-adv-x="1468" 
d="M1303 555c0 -188 -47.167 -331.667 -141.5 -431s-233.833 -149 -418.5 -149c-194.667 0 -340.167 47 -436.5 141s-144.5 231.333 -144.5 412v836h289v-811c0 -118 23.333 -204.167 70 -258.5s123 -81.5 229 -81.5c190.667 0 286 107.333 286 322v829h267v-809zM1100 1624
c0 -41.333 -14.5 -76.166 -43.5 -104.499s-65.167 -42.5 -108.5 -42.5s-79.5 14.167 -108.5 42.5s-43.5 63.166 -43.5 104.499c0 40 14.5 74.333 43.5 103s65.167 43 108.5 43s79.5 -14.333 108.5 -43s43.5 -63 43.5 -103zM670 1624c0 -41.333 -14.5 -76.166 -43.5 -104.499
s-65.167 -42.5 -108.5 -42.5s-79.5 14.167 -108.5 42.5s-43.5 63.166 -43.5 104.499c0 40 14.5 74.333 43.5 103s65.167 43 108.5 43s79.5 -14.333 108.5 -43s43.5 -63 43.5 -103z" />
    <glyph glyph-name="Yacute" unicode="&#xdd;" horiz-adv-x="1224" 
d="M1202 1364l-438 -850v-514h-289v514l-452 850h321l289 -580h2l287 580h280zM432 1475l170 276h352l-287 -276h-235z" />
    <glyph glyph-name="Thorn" unicode="&#xde;" horiz-adv-x="1210" 
d="M1137 713c0 -146 -49.166 -257.666 -147.499 -334.999s-234.166 -116 -407.499 -116h-125v-262h-291v1364h291v-221h157c101.333 0 190.666 -15.333 267.999 -46s139.166 -78.834 185.499 -144.501s69.5 -145.5 69.5 -239.5zM846.001 707.001
c0 143.333 -84.667 215 -254 215h-135v-439h129c90 0 155.833 18.333 197.5 55s62.5 93 62.5 169z" />
    <glyph glyph-name="germandbls" unicode="&#xdf;" horiz-adv-x="1185" 
d="M1137 281c0 -94 -32.168 -168.5 -96.501 -223.5s-153.166 -82.5 -266.499 -82.5c-114 0 -209.667 22 -287 66l78 195c58.667 -38.667 117.334 -58 176.001 -58c93.333 0 140 33.667 140 101c0 14.667 -2.83301 28.167 -8.5 40.5s-15.834 24.833 -30.501 37.5
s-27.334 22.667 -38.001 30s-28.834 18.666 -54.501 33.999s-44.167 26.666 -55.5 33.999c-51.333 32 -91.833 66.833 -121.5 104.5s-44.5 83.834 -44.5 138.501c0 21.333 2.5 42 7.5 62s10.333 36.333 16 49s15 27 28 43s22.667 27.333 29 34s18.166 17.667 35.499 33
s28 25 32 29c28 26.667 49 52.5 63 77.5s21 56.5 21 94.5c0 110.667 -54 166 -162 166c-126.667 0 -190 -90.667 -190 -272v-1014h-273v1018c0 82.667 12.333 155.334 37 218.001s58.834 112.834 102.501 150.501s93.167 65.834 148.5 84.501s115.666 28 180.999 28
c136 0 241.333 -34.833 316 -104.5s112 -156.834 112 -261.501c0 -55.333 -11 -101 -33 -137s-52 -70.333 -90 -103c-12 -12 -27.833 -26.333 -47.5 -43l-45 -39c-10.333 -9.33301 -19.666 -21.333 -27.999 -36s-12.5 -30 -12.5 -46c0 -6.66699 0.666992 -12.834 2 -18.501
s3.83301 -11.5 7.5 -17.5l9.5 -15c2.66699 -4 7.66699 -9 15 -15l17.5 -14.5c4.33301 -3.66699 11.833 -8.83398 22.5 -15.501l24 -15l29 -17.5l31 -18.5c30.667 -18.667 55.334 -35.167 74.001 -49.5s39.334 -33.666 62.001 -57.999s39.5 -52.5 50.5 -84.5
s16.5 -68.333 16.5 -109z" />
    <glyph glyph-name="agrave" unicode="&#xe0;" horiz-adv-x="1028" 
d="M934 0l-267.999 -0.00195312c-8.66699 26.667 -14.334 62 -17.001 106c-29.333 -34.667 -67.666 -65.167 -114.999 -91.5s-102.333 -39.5 -165 -39.5c-87.333 0 -159.333 25.167 -216 75.5s-85 118.833 -85 205.5c0 50 10 95.333 30 136s47 74.334 81 101.001
s74 49 120 67s94 30.833 144 38.5s102.333 11.5 157 11.5h35v58c0 46 -12 80.667 -36 104s-66 35 -126 35c-30 0 -58.833 -3.16699 -86.5 -9.5s-53.334 -15.833 -77.001 -28.5s-40.667 -22.334 -51 -29.001s-23.5 -15.667 -39.5 -27l-119 166
c24.667 22.667 52.5 43.334 83.5 62.001s75.833 36.834 134.5 54.501s120.667 26.5 186 26.5c138 0 239.333 -29 304 -87s97 -152 97 -282v-358c0 -110 9.66699 -208.333 29 -295zM635.001 261.998v180.001h-35c-180 0 -270 -54.333 -270 -163
c0 -34.667 11.833 -60.834 35.5 -78.501s52.167 -26.5 85.5 -26.5c68 0 129.333 29.333 184 88zM725.001 1108h-233l-287 276h350z" />
    <glyph glyph-name="aacute" unicode="&#xe1;" horiz-adv-x="1028" 
d="M934 0l-267.999 -0.00195312c-8.66699 26.667 -14.334 62 -17.001 106c-29.333 -34.667 -67.666 -65.167 -114.999 -91.5s-102.333 -39.5 -165 -39.5c-87.333 0 -159.333 25.167 -216 75.5s-85 118.833 -85 205.5c0 50 10 95.333 30 136s47 74.334 81 101.001
s74 49 120 67s94 30.833 144 38.5s102.333 11.5 157 11.5h35v58c0 46 -12 80.667 -36 104s-66 35 -126 35c-30 0 -58.833 -3.16699 -86.5 -9.5s-53.334 -15.833 -77.001 -28.5s-40.667 -22.334 -51 -29.001s-23.5 -15.667 -39.5 -27l-119 166
c24.667 22.667 52.5 43.334 83.5 62.001s75.833 36.834 134.5 54.501s120.667 26.5 186 26.5c138 0 239.333 -29 304 -87s97 -152 97 -282v-358c0 -110 9.66699 -208.333 29 -295zM635.001 261.998v180.001h-35c-180 0 -270 -54.333 -270 -163
c0 -34.667 11.833 -60.834 35.5 -78.501s52.167 -26.5 85.5 -26.5c68 0 129.333 29.333 184 88zM346.001 1108l170 276h352l-287 -276h-235z" />
    <glyph glyph-name="acircumflex" unicode="&#xe2;" horiz-adv-x="1028" 
d="M934 0l-267.999 -0.00195312c-8.66699 26.667 -14.334 62 -17.001 106c-29.333 -34.667 -67.666 -65.167 -114.999 -91.5s-102.333 -39.5 -165 -39.5c-87.333 0 -159.333 25.167 -216 75.5s-85 118.833 -85 205.5c0 50 10 95.333 30 136s47 74.334 81 101.001
s74 49 120 67s94 30.833 144 38.5s102.333 11.5 157 11.5h35v58c0 46 -12 80.667 -36 104s-66 35 -126 35c-30 0 -58.833 -3.16699 -86.5 -9.5s-53.334 -15.833 -77.001 -28.5s-40.667 -22.334 -51 -29.001s-23.5 -15.667 -39.5 -27l-119 166
c24.667 22.667 52.5 43.334 83.5 62.001s75.833 36.834 134.5 54.501s120.667 26.5 186 26.5c138 0 239.333 -29 304 -87s97 -152 97 -282v-358c0 -110 9.66699 -208.333 29 -295zM635.001 261.998v180.001h-35c-180 0 -270 -54.333 -270 -163
c0 -34.667 11.833 -60.834 35.5 -78.501s52.167 -26.5 85.5 -26.5c68 0 129.333 29.333 184 88zM876.001 1110h-231l-131 135l-131 -135h-231l260 326h208z" />
    <glyph glyph-name="atilde" unicode="&#xe3;" horiz-adv-x="1028" 
d="M934 0l-267.999 -0.00195312c-8.66699 26.667 -14.334 62 -17.001 106c-29.333 -34.667 -67.666 -65.167 -114.999 -91.5s-102.333 -39.5 -165 -39.5c-87.333 0 -159.333 25.167 -216 75.5s-85 118.833 -85 205.5c0 50 10 95.333 30 136s47 74.334 81 101.001
s74 49 120 67s94 30.833 144 38.5s102.333 11.5 157 11.5h35v58c0 46 -12 80.667 -36 104s-66 35 -126 35c-30 0 -58.833 -3.16699 -86.5 -9.5s-53.334 -15.833 -77.001 -28.5s-40.667 -22.334 -51 -29.001s-23.5 -15.667 -39.5 -27l-119 166
c24.667 22.667 52.5 43.334 83.5 62.001s75.833 36.834 134.5 54.501s120.667 26.5 186 26.5c138 0 239.333 -29 304 -87s97 -152 97 -282v-358c0 -110 9.66699 -208.333 29 -295zM635.001 261.998v180.001h-35c-180 0 -270 -54.333 -270 -163
c0 -34.667 11.833 -60.834 35.5 -78.501s52.167 -26.5 85.5 -26.5c68 0 129.333 29.333 184 88zM860.001 1274c-24.667 -42 -57.167 -78.5 -97.5 -109.5s-86.166 -46.5 -137.499 -46.5c-34.667 0 -66.334 6 -95.001 18s-54.667 24 -78 36s-46.333 18 -69 18
c-32 0 -68.667 -20.667 -110 -62l-125 109c23.333 41.333 55 77.333 95 108s85.333 46 136 46c35.333 0 67.333 -6 96 -18s54.5 -24 77.5 -36s45.833 -18 68.5 -18c43.333 0 81.333 21 114 63z" />
    <glyph glyph-name="adieresis" unicode="&#xe4;" horiz-adv-x="1028" 
d="M934 0l-267.999 -0.00195312c-8.66699 26.667 -14.334 62 -17.001 106c-29.333 -34.667 -67.666 -65.167 -114.999 -91.5s-102.333 -39.5 -165 -39.5c-87.333 0 -159.333 25.167 -216 75.5s-85 118.833 -85 205.5c0 50 10 95.333 30 136s47 74.334 81 101.001
s74 49 120 67s94 30.833 144 38.5s102.333 11.5 157 11.5h35v58c0 46 -12 80.667 -36 104s-66 35 -126 35c-30 0 -58.833 -3.16699 -86.5 -9.5s-53.334 -15.833 -77.001 -28.5s-40.667 -22.334 -51 -29.001s-23.5 -15.667 -39.5 -27l-119 166
c24.667 22.667 52.5 43.334 83.5 62.001s75.833 36.834 134.5 54.501s120.667 26.5 186 26.5c138 0 239.333 -29 304 -87s97 -152 97 -282v-358c0 -110 9.66699 -208.333 29 -295zM635.001 261.998v180.001h-35c-180 0 -270 -54.333 -270 -163
c0 -34.667 11.833 -60.834 35.5 -78.501s52.167 -26.5 85.5 -26.5c68 0 129.333 29.333 184 88zM875.001 1257c0 -41.333 -14.5 -76.166 -43.5 -104.499s-65.167 -42.5 -108.5 -42.5s-79.5 14.167 -108.5 42.5s-43.5 63.166 -43.5 104.499c0 40 14.5 74.333 43.5 103
s65.167 43 108.5 43s79.5 -14.333 108.5 -43s43.5 -63 43.5 -103zM445.001 1257c0 -41.333 -14.5 -76.166 -43.5 -104.499s-65.167 -42.5 -108.5 -42.5s-79.5 14.167 -108.5 42.5s-43.5 63.166 -43.5 104.499c0 40 14.5 74.333 43.5 103s65.167 43 108.5 43
s79.5 -14.333 108.5 -43s43.5 -63 43.5 -103z" />
    <glyph glyph-name="aring" unicode="&#xe5;" horiz-adv-x="1028" 
d="M934 0l-267.999 -0.00195312c-8.66699 26.667 -14.334 62 -17.001 106c-29.333 -34.667 -67.666 -65.167 -114.999 -91.5s-102.333 -39.5 -165 -39.5c-87.333 0 -159.333 25.167 -216 75.5s-85 118.833 -85 205.5c0 50 10 95.333 30 136s47 74.334 81 101.001
s74 49 120 67s94 30.833 144 38.5s102.333 11.5 157 11.5h35v58c0 46 -12 80.667 -36 104s-66 35 -126 35c-30 0 -58.833 -3.16699 -86.5 -9.5s-53.334 -15.833 -77.001 -28.5s-40.667 -22.334 -51 -29.001s-23.5 -15.667 -39.5 -27l-119 166
c24.667 22.667 52.5 43.334 83.5 62.001s75.833 36.834 134.5 54.501s120.667 26.5 186 26.5c138 0 239.333 -29 304 -87s97 -152 97 -282v-358c0 -110 9.66699 -208.333 29 -295zM635.001 261.998v180.001h-35c-180 0 -270 -54.333 -270 -163
c0 -34.667 11.833 -60.834 35.5 -78.501s52.167 -26.5 85.5 -26.5c68 0 129.333 29.333 184 88zM737.001 1323c0 -61.333 -22.5 -113.166 -67.5 -155.499s-97.5 -63.5 -157.5 -63.5s-112.5 21.167 -157.5 63.5s-67.5 94.166 -67.5 155.499c0 60.667 22.5 112 67.5 154
s97.5 63 157.5 63s112.5 -21 157.5 -63s67.5 -93.333 67.5 -154zM606.001 1323c0 28.667 -8.5 52.834 -25.5 72.501s-39.833 29.5 -68.5 29.5s-51.5 -9.83301 -68.5 -29.5s-25.5 -43.834 -25.5 -72.501s8.5 -53.167 25.5 -73.5s39.833 -30.5 68.5 -30.5
s51.5 10.167 68.5 30.5s25.5 44.833 25.5 73.5z" />
    <glyph glyph-name="ae" unicode="&#xe6;" horiz-adv-x="1628" 
d="M815 913c87.333 72.667 189.004 108.998 305.004 108.998c154 0 268 -51.333 342 -154s103.333 -246.667 88 -432h-635c7.33301 -80.667 32.333 -143.834 75 -189.501s104 -68.5 184 -68.5c41.333 0 81.166 4.83301 119.499 14.5s64.166 17.667 77.499 24
s33.666 16.833 60.999 31.5l88 -176c-25.333 -14 -45.5 -24.667 -60.5 -32s-38.667 -17.166 -71 -29.499s-68.333 -21.333 -108 -27s-83.5 -8.5 -131.5 -8.5c-175.333 0 -310 58.333 -404 175c-44 -49.333 -97.5 -90.833 -160.5 -124.5s-134.833 -50.5 -215.5 -50.5
c-87.333 0 -159.333 25.167 -216 75.5s-85 118.833 -85 205.5c0 50 10 95.333 30 136s47 74.334 81 101.001s74 49 120 67s94 30.833 144 38.5s102.333 11.5 157 11.5h39v58c0 46 -12.5 80.667 -37.5 104s-67.833 35 -128.5 35c-30 0 -58.833 -3.16699 -86.5 -9.5
s-53.334 -15.833 -77.001 -28.5s-40.667 -22.334 -51 -29.001s-23.5 -15.667 -39.5 -27l-119 166c24.667 22.667 52.5 43.334 83.5 62.001s75.833 36.834 134.5 54.501s120.667 26.5 186 26.5c147.333 0 251 -36.333 311 -109zM913.004 620.998h375
c-2 62 -16.667 111.5 -44 148.5s-70 55.5 -128 55.5c-111.333 0 -179 -68 -203 -204zM631.004 441.998l-30.998 0.00292969c-180 0 -270 -54.333 -270 -163c0 -34.667 11.833 -60.834 35.5 -78.501s52.167 -26.5 85.5 -26.5c47.333 0 89.166 11.167 125.499 33.5
s66.166 50.166 89.499 83.499c-17.333 45.333 -29 95.666 -35 150.999z" />
    <glyph glyph-name="ccedilla" unicode="&#xe7;" horiz-adv-x="937" 
d="M424 -6c-113.333 28.667 -202.172 87.8271 -266.505 177.494s-96.5 198.5 -96.5 326.5c0 164 48.833 292.333 146.5 385s223.834 139 378.501 139c122.667 0 224.334 -26.667 305.001 -80l-88 -186c-61.333 39.333 -131 59 -209 59s-138.167 -28 -180.5 -84
s-63.5 -131 -63.5 -225c0 -96 21.167 -173.333 63.5 -232s104.5 -88 186.5 -88c26.667 0 51.834 2 75.501 6s45.667 10.333 66 19s34 14.834 41 18.501s17.833 9.83398 32.5 18.501l84 -182c-17.333 -11.333 -32.833 -20.666 -46.5 -27.999s-34 -16.666 -61 -27.999
s-58.667 -20 -95 -26s-75.833 -9 -118.5 -9h-7c0.666992 0 -1.5 -7.33301 -6.5 -22l-15.5 -44l-8 -22c43.333 -9.33301 78.333 -28.666 105 -57.999s40 -66 40 -110c0 -56.667 -23.667 -102.5 -71 -137.5s-109 -52.5 -185 -52.5c-65.333 0 -121.333 10.333 -168 31l35 123
c30.667 -15.333 65.334 -23 104.001 -23c30.667 0 54.834 6 72.501 18s26.5 29.333 26.5 52c0 56.667 -48.667 82.334 -146 77.001z" />
    <glyph glyph-name="egrave" unicode="&#xe8;" horiz-adv-x="1062" 
d="M352 436c6 -80.667 30.1689 -143.833 72.502 -189.5s103.5 -68.5 183.5 -68.5c14.667 0 28.834 0.5 42.501 1.5s27 2.66699 40 5l33.5 6c9.33301 1.66699 20 4.66699 32 9s21 7.33301 27 9s14.833 5.16699 26.5 10.5s18.667 8.66602 21 9.99902s9.16602 5 20.499 11l17 8
l88 -176c-25.333 -14 -45.333 -24.667 -60 -32s-38.334 -17.166 -71.001 -29.499s-69 -21.333 -109 -27s-84 -8.5 -132 -8.5c-164.667 0 -293 47.833 -385 143.5s-138 224.167 -138 385.5c0 154.667 47.167 279.667 141.5 375s211.833 143 352.5 143
c154.667 0 269.167 -51.333 343.5 -154s103.166 -246.667 86.499 -432h-633zM352.002 621.001l370.999 0.000976562c-1.33301 61.333 -15.666 110.666 -42.999 147.999s-70.333 56 -129 56c-114 0 -180.333 -68 -199 -204zM774.001 1108h-233l-287 276h350z" />
    <glyph glyph-name="eacute" unicode="&#xe9;" horiz-adv-x="1062" 
d="M352 436c6 -80.667 30.1689 -143.833 72.502 -189.5s103.5 -68.5 183.5 -68.5c14.667 0 28.834 0.5 42.501 1.5s27 2.66699 40 5l33.5 6c9.33301 1.66699 20 4.66699 32 9s21 7.33301 27 9s14.833 5.16699 26.5 10.5s18.667 8.66602 21 9.99902s9.16602 5 20.499 11l17 8
l88 -176c-25.333 -14 -45.333 -24.667 -60 -32s-38.334 -17.166 -71.001 -29.499s-69 -21.333 -109 -27s-84 -8.5 -132 -8.5c-164.667 0 -293 47.833 -385 143.5s-138 224.167 -138 385.5c0 154.667 47.167 279.667 141.5 375s211.833 143 352.5 143
c154.667 0 269.167 -51.333 343.5 -154s103.166 -246.667 86.499 -432h-633zM352.002 621.001l370.999 0.000976562c-1.33301 61.333 -15.666 110.666 -42.999 147.999s-70.333 56 -129 56c-114 0 -180.333 -68 -199 -204zM381.001 1108l170 276h352l-287 -276h-235z" />
    <glyph glyph-name="ecircumflex" unicode="&#xea;" horiz-adv-x="1062" 
d="M352 436c6 -80.667 30.1689 -143.833 72.502 -189.5s103.5 -68.5 183.5 -68.5c14.667 0 28.834 0.5 42.501 1.5s27 2.66699 40 5l33.5 6c9.33301 1.66699 20 4.66699 32 9s21 7.33301 27 9s14.833 5.16699 26.5 10.5s18.667 8.66602 21 9.99902s9.16602 5 20.499 11l17 8
l88 -176c-25.333 -14 -45.333 -24.667 -60 -32s-38.334 -17.166 -71.001 -29.499s-69 -21.333 -109 -27s-84 -8.5 -132 -8.5c-164.667 0 -293 47.833 -385 143.5s-138 224.167 -138 385.5c0 154.667 47.167 279.667 141.5 375s211.833 143 352.5 143
c154.667 0 269.167 -51.333 343.5 -154s103.166 -246.667 86.499 -432h-633zM352.002 621.001l370.999 0.000976562c-1.33301 61.333 -15.666 110.666 -42.999 147.999s-70.333 56 -129 56c-114 0 -180.333 -68 -199 -204zM905.001 1110h-231l-131 135l-131 -135h-231
l260 326h208z" />
    <glyph glyph-name="edieresis" unicode="&#xeb;" horiz-adv-x="1062" 
d="M352 436c6 -80.667 30.1689 -143.833 72.502 -189.5s103.5 -68.5 183.5 -68.5c14.667 0 28.834 0.5 42.501 1.5s27 2.66699 40 5l33.5 6c9.33301 1.66699 20 4.66699 32 9s21 7.33301 27 9s14.833 5.16699 26.5 10.5s18.667 8.66602 21 9.99902s9.16602 5 20.499 11l17 8
l88 -176c-25.333 -14 -45.333 -24.667 -60 -32s-38.334 -17.166 -71.001 -29.499s-69 -21.333 -109 -27s-84 -8.5 -132 -8.5c-164.667 0 -293 47.833 -385 143.5s-138 224.167 -138 385.5c0 154.667 47.167 279.667 141.5 375s211.833 143 352.5 143
c154.667 0 269.167 -51.333 343.5 -154s103.166 -246.667 86.499 -432h-633zM352.002 621.001l370.999 0.000976562c-1.33301 61.333 -15.666 110.666 -42.999 147.999s-70.333 56 -129 56c-114 0 -180.333 -68 -199 -204zM906.001 1257
c0 -41.333 -14.5 -76.166 -43.5 -104.499s-65.167 -42.5 -108.5 -42.5s-79.5 14.167 -108.5 42.5s-43.5 63.166 -43.5 104.499c0 40 14.5 74.333 43.5 103s65.167 43 108.5 43s79.5 -14.333 108.5 -43s43.5 -63 43.5 -103zM476.001 1257
c0 -41.333 -14.5 -76.166 -43.5 -104.499s-65.167 -42.5 -108.5 -42.5s-79.5 14.167 -108.5 42.5s-43.5 63.166 -43.5 104.499c0 40 14.5 74.333 43.5 103s65.167 43 108.5 43s79.5 -14.333 108.5 -43s43.5 -63 43.5 -103z" />
    <glyph glyph-name="igrave" unicode="&#xec;" horiz-adv-x="573" 
d="M424 0h-274v997h274v-997zM510 1108h-233l-287 276h350z" />
    <glyph glyph-name="iacute" unicode="&#xed;" horiz-adv-x="573" 
d="M424 0h-274v997h274v-997zM125 1108l170 276h352l-287 -276h-235z" />
    <glyph glyph-name="icircumflex" unicode="&#xee;" horiz-adv-x="573" 
d="M424 0h-274v997h274v-997zM651 1110h-231l-131 135l-131 -135h-231l260 326h208z" />
    <glyph glyph-name="idieresis" unicode="&#xef;" horiz-adv-x="573" 
d="M424 0h-274v997h274v-997zM656 1257c0 -41.333 -14.5 -76.166 -43.5 -104.499s-65.167 -42.5 -108.5 -42.5s-79.5 14.167 -108.5 42.5s-43.5 63.166 -43.5 104.499c0 40 14.5 74.333 43.5 103s65.167 43 108.5 43s79.5 -14.333 108.5 -43s43.5 -63 43.5 -103zM226 1257
c0 -41.333 -14.5 -76.166 -43.5 -104.499s-65.167 -42.5 -108.5 -42.5s-79.5 14.167 -108.5 42.5s-43.5 63.166 -43.5 104.499c0 40 14.5 74.333 43.5 103s65.167 43 108.5 43s79.5 -14.333 108.5 -43s43.5 -63 43.5 -103z" />
    <glyph glyph-name="eth" unicode="&#xf0;" horiz-adv-x="1150" 
d="M565 1184l-134.998 -123.001l-106 110l92 84c-72.667 22 -159.334 33 -260.001 33l55 211c147.333 0 279.666 -23 396.999 -69l137 126l109 -112l-100 -92c106 -72 186.333 -170.667 241 -296s82 -272.666 82 -441.999c0 -92.667 -10.667 -177.667 -32 -255
s-52.833 -144.666 -94.5 -201.999s-95.5 -102 -161.5 -134s-141.333 -48 -226 -48c-68.667 0 -133 11.333 -193 34s-113 55.167 -159 97.5s-82.167 96.333 -108.5 162s-39.5 139.167 -39.5 220.5c0 157.333 44 281.666 132 372.999s197 137 327 137
c92 0 166.333 -22.333 223 -67c-36 109.333 -96 193.333 -180 252zM788.002 679.999c-54 76.667 -130.334 114.998 -229.001 114.998c-67.333 0 -118.666 -26.833 -153.999 -80.5s-53 -127.167 -53 -220.5c0 -97.333 18.667 -173.666 56 -228.999s90.333 -83 159 -83
c73.333 0 129 34.5 167 103.5s57 177.833 57 326.5c0 22.667 -1 45.334 -3 68.001z" />
    <glyph glyph-name="ntilde" unicode="&#xf1;" horiz-adv-x="1140" 
d="M1016 0l-272.999 0.00292969v643c0 51.333 -10.167 89.5 -30.5 114.5s-54.5 37.5 -102.5 37.5c-24.667 0 -48.834 -5 -72.501 -15s-44.667 -22.833 -63 -38.5s-32.333 -28.834 -42 -39.501s-18.5 -21.334 -26.5 -32.001v-670h-273v997h266v-125c90 100 196 150 318 150
c103.333 0 179 -29.333 227 -88s72 -137.334 72 -236.001v-698zM919.001 1274c-24.667 -42 -57.167 -78.5 -97.5 -109.5s-86.166 -46.5 -137.499 -46.5c-34.667 0 -66.334 6 -95.001 18s-54.667 24 -78 36s-46.333 18 -69 18c-32 0 -68.667 -20.667 -110 -62l-125 109
c23.333 41.333 55 77.333 95 108s85.333 46 136 46c35.333 0 67.333 -6 96 -18s54.5 -24 77.5 -36s45.833 -18 68.5 -18c43.333 0 81.333 21 114 63z" />
    <glyph glyph-name="ograve" unicode="&#xf2;" horiz-adv-x="1126" 
d="M1065 504c0 -51.333 -6.16602 -101.835 -18.499 -151.502s-31.833 -97.5 -58.5 -143.5s-59.334 -86.167 -98.001 -120.5s-86.334 -61.833 -143.001 -82.5s-118.667 -31 -186 -31s-129 9.83301 -185 29.5s-103.167 46.334 -141.5 80.001s-70.833 72.834 -97.5 117.501
s-46 91.667 -58 141s-18 100.333 -18 153s6 103.667 18 153s31.167 96.833 57.5 142.5s58.5 85.5 96.5 119.5s85 61 141 81s117.667 30 185 30s129.333 -9.83301 186 -29.5s104.334 -46 143.001 -79s71.5 -71.833 98.5 -116.5s46.833 -91.667 59.5 -141s19 -100 19 -152z
M776.001 495.998c0 98.667 -18.167 177.167 -54.5 235.5s-91.833 87.5 -166.5 87.5c-136.667 0 -205 -105 -205 -315c0 -98.667 17.5 -177 52.5 -235s89.167 -87 162.5 -87c140.667 0 211 104.667 211 314zM784.001 1108h-233l-287 276h350z" />
    <glyph glyph-name="oacute" unicode="&#xf3;" horiz-adv-x="1126" 
d="M1065 504c0 -51.333 -6.16602 -101.835 -18.499 -151.502s-31.833 -97.5 -58.5 -143.5s-59.334 -86.167 -98.001 -120.5s-86.334 -61.833 -143.001 -82.5s-118.667 -31 -186 -31s-129 9.83301 -185 29.5s-103.167 46.334 -141.5 80.001s-70.833 72.834 -97.5 117.501
s-46 91.667 -58 141s-18 100.333 -18 153s6 103.667 18 153s31.167 96.833 57.5 142.5s58.5 85.5 96.5 119.5s85 61 141 81s117.667 30 185 30s129.333 -9.83301 186 -29.5s104.334 -46 143.001 -79s71.5 -71.833 98.5 -116.5s46.833 -91.667 59.5 -141s19 -100 19 -152z
M776.001 495.998c0 98.667 -18.167 177.167 -54.5 235.5s-91.833 87.5 -166.5 87.5c-136.667 0 -205 -105 -205 -315c0 -98.667 17.5 -177 52.5 -235s89.167 -87 162.5 -87c140.667 0 211 104.667 211 314zM406.001 1108l170 276h352l-287 -276h-235z" />
    <glyph glyph-name="ocircumflex" unicode="&#xf4;" horiz-adv-x="1126" 
d="M1065 504c0 -51.333 -6.16602 -101.835 -18.499 -151.502s-31.833 -97.5 -58.5 -143.5s-59.334 -86.167 -98.001 -120.5s-86.334 -61.833 -143.001 -82.5s-118.667 -31 -186 -31s-129 9.83301 -185 29.5s-103.167 46.334 -141.5 80.001s-70.833 72.834 -97.5 117.501
s-46 91.667 -58 141s-18 100.333 -18 153s6 103.667 18 153s31.167 96.833 57.5 142.5s58.5 85.5 96.5 119.5s85 61 141 81s117.667 30 185 30s129.333 -9.83301 186 -29.5s104.334 -46 143.001 -79s71.5 -71.833 98.5 -116.5s46.833 -91.667 59.5 -141s19 -100 19 -152z
M776.001 495.998c0 98.667 -18.167 177.167 -54.5 235.5s-91.833 87.5 -166.5 87.5c-136.667 0 -205 -105 -205 -315c0 -98.667 17.5 -177 52.5 -235s89.167 -87 162.5 -87c140.667 0 211 104.667 211 314zM923.001 1110h-231l-131 135l-131 -135h-231l260 326h208z" />
    <glyph glyph-name="otilde" unicode="&#xf5;" horiz-adv-x="1126" 
d="M1065 504c0 -51.333 -6.16602 -101.835 -18.499 -151.502s-31.833 -97.5 -58.5 -143.5s-59.334 -86.167 -98.001 -120.5s-86.334 -61.833 -143.001 -82.5s-118.667 -31 -186 -31s-129 9.83301 -185 29.5s-103.167 46.334 -141.5 80.001s-70.833 72.834 -97.5 117.501
s-46 91.667 -58 141s-18 100.333 -18 153s6 103.667 18 153s31.167 96.833 57.5 142.5s58.5 85.5 96.5 119.5s85 61 141 81s117.667 30 185 30s129.333 -9.83301 186 -29.5s104.334 -46 143.001 -79s71.5 -71.833 98.5 -116.5s46.833 -91.667 59.5 -141s19 -100 19 -152z
M776.001 495.998c0 98.667 -18.167 177.167 -54.5 235.5s-91.833 87.5 -166.5 87.5c-136.667 0 -205 -105 -205 -315c0 -98.667 17.5 -177 52.5 -235s89.167 -87 162.5 -87c140.667 0 211 104.667 211 314zM915.001 1274c-24.667 -42 -57.167 -78.5 -97.5 -109.5
s-86.166 -46.5 -137.499 -46.5c-34.667 0 -66.334 6 -95.001 18s-54.667 24 -78 36s-46.333 18 -69 18c-32 0 -68.667 -20.667 -110 -62l-125 109c23.333 41.333 55 77.333 95 108s85.333 46 136 46c35.333 0 67.333 -6 96 -18s54.5 -24 77.5 -36s45.833 -18 68.5 -18
c43.333 0 81.333 21 114 63z" />
    <glyph glyph-name="odieresis" unicode="&#xf6;" horiz-adv-x="1126" 
d="M1065 504c0 -51.333 -6.16602 -101.835 -18.499 -151.502s-31.833 -97.5 -58.5 -143.5s-59.334 -86.167 -98.001 -120.5s-86.334 -61.833 -143.001 -82.5s-118.667 -31 -186 -31s-129 9.83301 -185 29.5s-103.167 46.334 -141.5 80.001s-70.833 72.834 -97.5 117.501
s-46 91.667 -58 141s-18 100.333 -18 153s6 103.667 18 153s31.167 96.833 57.5 142.5s58.5 85.5 96.5 119.5s85 61 141 81s117.667 30 185 30s129.333 -9.83301 186 -29.5s104.334 -46 143.001 -79s71.5 -71.833 98.5 -116.5s46.833 -91.667 59.5 -141s19 -100 19 -152z
M776.001 495.998c0 98.667 -18.167 177.167 -54.5 235.5s-91.833 87.5 -166.5 87.5c-136.667 0 -205 -105 -205 -315c0 -98.667 17.5 -177 52.5 -235s89.167 -87 162.5 -87c140.667 0 211 104.667 211 314zM926.001 1257c0 -41.333 -14.5 -76.166 -43.5 -104.499
s-65.167 -42.5 -108.5 -42.5s-79.5 14.167 -108.5 42.5s-43.5 63.166 -43.5 104.499c0 40 14.5 74.333 43.5 103s65.167 43 108.5 43s79.5 -14.333 108.5 -43s43.5 -63 43.5 -103zM496.001 1257c0 -41.333 -14.5 -76.166 -43.5 -104.499s-65.167 -42.5 -108.5 -42.5
s-79.5 14.167 -108.5 42.5s-43.5 63.166 -43.5 104.499c0 40 14.5 74.333 43.5 103s65.167 43 108.5 43s79.5 -14.333 108.5 -43s43.5 -63 43.5 -103z" />
    <glyph glyph-name="divide" unicode="&#xf7;" 
d="M2048 1475v-1905h-1905v1905h1905zM295 1323v-1599h1599v1599h-1599zM918 565l403 494h186l-411 -496l436 -563h-199l-415 537v-537h-162v1059h162v-494z" />
    <glyph glyph-name="oslash" unicode="&#xf8;" horiz-adv-x="1126" 
d="M188 129c-42 48.667 -73.6641 105 -94.9971 169s-32 130 -32 198c0 52.667 6 103.667 18 153s31.167 96.833 57.5 142.5s58.5 85.5 96.5 119.5s85 61 141 81s117.667 30 185 30c77.333 0 147.666 -13 210.999 -39l119 178l153 -100l-120 -178
c46.667 -48.667 82.167 -106.167 106.5 -172.5s36.5 -135.166 36.5 -206.499c0 -51.333 -6.16699 -101.833 -18.5 -151.5s-31.833 -97.5 -58.5 -143.5s-59.334 -86.167 -98.001 -120.5s-86.334 -61.833 -143.001 -82.5s-118.667 -31 -186 -31c-86 0 -161.667 16 -227 48
l-111 -160l-149 98l19 28.5l37 54.5l41.5 61.5c11 16.333 16.5 24.166 16.5 23.499zM356.003 354l301 445c-28.667 16 -62.667 24 -102 24c-143.333 0 -215 -106.333 -215 -319c0 -52 5.33301 -102 16 -150zM760.003 668c-208 -306 -312.667 -458.999 -314 -458.999
c36 -22 75.667 -33 119 -33c146 0 219 106.667 219 320c0 65.333 -8 122.666 -24 171.999z" />
    <glyph glyph-name="ugrave" unicode="&#xf9;" horiz-adv-x="1140" 
d="M125 997l272 0.000976562v-643c0 -51.333 10.167 -89.333 30.5 -114s54.5 -37 102.5 -37c70 0 138.333 41.667 205 125v669h273v-710c0 -106 8.66699 -201.667 26 -287h-268c-11.333 39.333 -18.333 83.666 -21 132.999c-82 -105.333 -189 -158 -321 -158
c-103.333 0 -179 29.5 -227 88.5s-72 137.5 -72 235.5v698zM798 1108h-233l-287 276h350z" />
    <glyph glyph-name="uacute" unicode="&#xfa;" horiz-adv-x="1140" 
d="M125 997l272 0.000976562v-643c0 -51.333 10.167 -89.333 30.5 -114s54.5 -37 102.5 -37c70 0 138.333 41.667 205 125v669h273v-710c0 -106 8.66699 -201.667 26 -287h-268c-11.333 39.333 -18.333 83.666 -21 132.999c-82 -105.333 -189 -158 -321 -158
c-103.333 0 -179 29.5 -227 88.5s-72 137.5 -72 235.5v698zM393 1108l170 276h352l-287 -276h-235z" />
    <glyph glyph-name="ucircumflex" unicode="&#xfb;" horiz-adv-x="1140" 
d="M125 997l272 0.000976562v-643c0 -51.333 10.167 -89.333 30.5 -114s54.5 -37 102.5 -37c70 0 138.333 41.667 205 125v669h273v-710c0 -106 8.66699 -201.667 26 -287h-268c-11.333 39.333 -18.333 83.666 -21 132.999c-82 -105.333 -189 -158 -321 -158
c-103.333 0 -179 29.5 -227 88.5s-72 137.5 -72 235.5v698zM931 1110h-231l-131 135l-131 -135h-231l260 326h208z" />
    <glyph glyph-name="udieresis" unicode="&#xfc;" horiz-adv-x="1140" 
d="M125 997l272 0.000976562v-643c0 -51.333 10.167 -89.333 30.5 -114s54.5 -37 102.5 -37c70 0 138.333 41.667 205 125v669h273v-710c0 -106 8.66699 -201.667 26 -287h-268c-11.333 39.333 -18.333 83.666 -21 132.999c-82 -105.333 -189 -158 -321 -158
c-103.333 0 -179 29.5 -227 88.5s-72 137.5 -72 235.5v698zM936 1257c0 -41.333 -14.5 -76.166 -43.5 -104.499s-65.167 -42.5 -108.5 -42.5s-79.5 14.167 -108.5 42.5s-43.5 63.166 -43.5 104.499c0 40 14.5 74.333 43.5 103s65.167 43 108.5 43s79.5 -14.333 108.5 -43
s43.5 -63 43.5 -103zM506 1257c0 -41.333 -14.5 -76.166 -43.5 -104.499s-65.167 -42.5 -108.5 -42.5s-79.5 14.167 -108.5 42.5s-43.5 63.166 -43.5 104.499c0 40 14.5 74.333 43.5 103s65.167 43 108.5 43s79.5 -14.333 108.5 -43s43.5 -63 43.5 -103z" />
    <glyph glyph-name="yacute" unicode="&#xfd;" horiz-adv-x="1062" 
d="M406 20l-374.998 977.001h291l221 -657h10l203 657h280l-411 -1103c-23.333 -63.333 -47.333 -116.333 -72 -159s-54.834 -81 -90.501 -115s-78.334 -59 -128.001 -75s-107.834 -24 -174.501 -24c-62.667 0 -114 6 -154 18l39 215c23.333 -6.66699 55.333 -10 96 -10
c64.667 0 113.334 14.167 146.001 42.5s60 72.166 82 131.499zM371.002 1108l170 276h352l-287 -276h-235z" />
    <glyph glyph-name="thorn" unicode="&#xfe;" horiz-adv-x="1144" 
d="M1081 500c0 -156.667 -41.668 -283.333 -125.001 -380s-190.333 -145 -321 -145c-98.667 0 -175 24 -229 72v-496h-273v1922h273v-574c71.333 82 161.333 123 270 123c126.667 0 225.834 -45.5 297.501 -136.5s107.5 -219.5 107.5 -385.5zM792.999 500.001
c0 96 -16.832 170.833 -50.499 224.5s-83.167 80.5 -148.5 80.5c-44 0 -82.333 -11.333 -115 -34s-57 -45.667 -73 -69v-448c51.333 -45.333 108.666 -68 171.999 -68c69.333 0 122.5 27.5 159.5 82.5s55.5 132.167 55.5 231.5z" />
    <glyph glyph-name="ydieresis" unicode="&#xff;" horiz-adv-x="1062" 
d="M406 20l-374.998 977.001h291l221 -657h10l203 657h280l-411 -1103c-23.333 -63.333 -47.333 -116.333 -72 -159s-54.834 -81 -90.501 -115s-78.334 -59 -128.001 -75s-107.834 -24 -174.501 -24c-62.667 0 -114 6 -154 18l39 215c23.333 -6.66699 55.333 -10 96 -10
c64.667 0 113.334 14.167 146.001 42.5s60 72.166 82 131.499zM902.002 1257c0 -41.333 -14.5 -76.166 -43.5 -104.499s-65.167 -42.5 -108.5 -42.5s-79.5 14.167 -108.5 42.5s-43.5 63.166 -43.5 104.499c0 40 14.5 74.333 43.5 103s65.167 43 108.5 43
s79.5 -14.333 108.5 -43s43.5 -63 43.5 -103zM472.002 1257c0 -41.333 -14.5 -76.166 -43.5 -104.499s-65.167 -42.5 -108.5 -42.5s-79.5 14.167 -108.5 42.5s-43.5 63.166 -43.5 104.499c0 40 14.5 74.333 43.5 103s65.167 43 108.5 43s79.5 -14.333 108.5 -43
s43.5 -63 43.5 -103z" />
    <glyph glyph-name="dotlessi" unicode="&#x131;" horiz-adv-x="573" 
d="M424 0h-274v997h274v-997z" />
    <glyph glyph-name="Lslash" unicode="&#x141;" horiz-adv-x="1064" 
d="M481 686v0v0v0v-1v0v0v0v-1v0v0v-1v0v-1v0v-1v0v-1v0v-1v-1v0v-1v-1v-1v-1v-1v-1v-1v-1v-1v-1v-1v-1v-1v-1v-1v-1v-1v-1v-1v-1v-1v-1v-1v-1v-1v-1v-1v-1v-1v-1v-1v-1v-1v-1v-1v-1v-1v-1v-1v-1v-1v-1v-1v-1v-1v-1v-1v-1v-1v-1v-1v-1v-1v-1v-1v-1v-1v-1v-1v-1v-1v-1v-1v-1
v-1v-1v-1v-1v-1v-1v-1v-1v-1v-1v-2v-1v-1v-1v-1v-1v-1v-1v-1v-1v-1v-2v-1v-1v-1v-1v-1v-1v-1v-2v-1v-1v-1v-1v-1v-2v-1v-1v-1v-1v-2v-1v-1v-1v-1v-2v-1v-1v-1v-2v-1v-1v-1v-1v-2v-1v-1v-2v-1v-1v-1v-2v-1v-1v-2v-1v-1v-1v-2v-1v-1v-2v-1v-1v-2v-1v-1v-2v-1v-1v-2v-1v-2v-1
v-1v-2v-1v-1v-2v-1v-2v-1v-1v-2v-1v-2v-1v-1v-2v-1v-2v-1v-2v-1v-1v-2v-1v-2v-1v-2v-1v-2v-1v-2v-1v-1v-2v-1v-2v-1v-2v-1v-2v-1v-2v-1v-2v-2v-1v-2v-1v-2v-1v-2v-1v-2v-1v-2v-1v-2v-2v-1v-2v-1v-2v-1v-2v-2v-1v-2v-1v-2v-1v-2v-2v-1v-2v-2v-1v-2v-1v-2v-2v-1v-2v-2v-1v-2
v-1v-2v-2v-1v-2v-2v-1v-2v-2v-1v-2v-2v-1v-2v-2v-2v-1v-2v-2v-1v-2v-2v-1v-2v-2v-2v-1v-2v-2v-2v-1v-2v-2v-1v-2v-2v-2v-2v-1v-2v-2v-2v-1v-2v-2v-2v-1v-2v-2v-2v-2v-1v-2v-2v-2v-2v-1v-2v-2v-2v-2v-2v-1v-2v-2v-2v-2v-2v-2v-1v-2v-2v-2v-2v-2v-2v-1v-2v-2v-2v-2v-2v-8h508
v-233h-799v477l-116 -84l-105 146l221 159v666h291v-455l199 144l104 -148z" />
    <glyph glyph-name="lslash" unicode="&#x142;" horiz-adv-x="604" 
d="M162 711v764h272v-582l164 108v-208l-164 -109v-684h-272v504l-135 -90v207z" />
    <glyph glyph-name="OE" unicode="&#x152;" horiz-adv-x="1882" 
d="M983 1364l774 -0.000976562v-238h-502v-307h441v-225h-441v-356h517v-238h-777c-63.333 -16.667 -133.666 -25 -210.999 -25c-110.667 0 -211.5 19.333 -302.5 58s-165.667 90.834 -224 156.501s-103.166 140.5 -134.499 224.5s-47 172.667 -47 266
c0 94 15.5 183.167 46.5 267.5s75.167 159.5 132.5 225.5s131.166 118.5 221.499 157.5s190.833 58.5 301.5 58.5c71.333 0 139.666 -8.33301 204.999 -25zM973 243.999l0.000976562 874.003c-50.667 24.667 -113.667 37 -189 37c-66.667 0 -126 -12.333 -178 -37
s-94.167 -58.5 -126.5 -101.5s-56.833 -92.333 -73.5 -148s-25 -115.834 -25 -180.501c0 -65.333 8.16699 -126.333 24.5 -183s40.166 -107.334 71.499 -152.001s72.833 -79.834 124.5 -105.501s110.5 -38.5 176.5 -38.5c78 0 143 11.667 195 35z" />
    <glyph glyph-name="oe" unicode="&#x153;" horiz-adv-x="1775" 
d="M915 121c-90.667 -97.333 -208.668 -146.003 -354.001 -146.003c-67.333 0 -129 9.83301 -185 29.5s-103.167 46.334 -141.5 80.001s-70.833 72.834 -97.5 117.501s-46 91.667 -58 141s-18 100.333 -18 153s6 103.667 18 153s31.167 96.833 57.5 142.5
s58.5 85.5 96.5 119.5s85 61 141 81s117.667 30 185 30c148.667 0 268.334 -47.667 359.001 -143c91.333 95.333 206.666 143 345.999 143c154 0 268 -51.333 342 -154s103.333 -246.667 88 -432h-635c7.33301 -80.667 32 -143.834 74 -189.501s102.667 -68.5 182 -68.5
c42 0 82.333 4.83301 121 14.5s64.834 17.834 78.501 24.501l60.5 31l88 -176c-25.333 -14 -45.5 -24.667 -60.5 -32s-38.667 -17.166 -71 -29.499s-68.333 -21.333 -108 -27s-83.5 -8.5 -131.5 -8.5c-158 0 -283.667 48.667 -377 146zM1059 620.997h373
c-2 62 -16.667 111.5 -44 148.5s-70 55.5 -128 55.5c-113.333 0 -180.333 -68 -201 -204zM775.999 495.997c0 98.667 -18.167 177.167 -54.5 235.5s-91.833 87.5 -166.5 87.5c-136.667 0 -205 -105 -205 -315c0 -98.667 17.5 -177 52.5 -235s89.167 -87 162.5 -87
c140.667 0 211 104.667 211 314z" />
    <glyph glyph-name="Scaron" unicode="&#x160;" horiz-adv-x="1056" 
d="M975 381c0 -124.667 -43.835 -223.505 -131.502 -296.505s-207.167 -109.5 -358.5 -109.5c-97.333 0 -181.666 14.167 -252.999 42.5s-127.666 59.5 -168.999 93.5l123 200c91.333 -68 189 -102 293 -102c66.667 0 119.5 15 158.5 45s58.5 67.667 58.5 113
c0 23.333 -4.83301 44 -14.5 62s-26 35 -49 51s-44 28.833 -63 38.5s-48 23.334 -87 41.001l-91.5 42.5c-45.333 22 -84.5 44.667 -117.5 68s-63.5 51 -91.5 83s-49 69.5 -63 112.5s-21 91.167 -21 144.5c0 76 19.833 143 59.5 201s92.834 102.167 159.501 132.5
s140.667 45.5 222 45.5c164.667 0 297.667 -38.333 399 -115l-117 -203c-84.667 56 -173.334 84 -266.001 84c-56.667 0 -101.167 -12.167 -133.5 -36.5s-48.5 -59.166 -48.5 -104.499c0 -13.333 1.83301 -25.666 5.5 -36.999s8 -21.5 13 -30.5s13.167 -18.167 24.5 -27.5
l28.5 -23c7.66699 -6 20.5 -13.667 38.5 -23s31.833 -16.166 41.5 -20.499l49.5 -22c23.333 -10.333 40.333 -18.166 51 -23.499l76.5 -36.5c21 -10.333 44.667 -23.5 71 -39.5s48.5 -31.667 66.5 -47s36.167 -33.833 54.5 -55.5s33 -44.167 44 -67.5s20 -50.333 27 -81
s10.5 -63.667 10.5 -99zM163.998 1801h231l131 -136l131 136h231l-260 -326h-208z" />
    <glyph glyph-name="scaron" unicode="&#x161;" horiz-adv-x="860" 
d="M803 295c0 -103.333 -34.668 -182.499 -104.001 -237.499s-166.333 -82.5 -291 -82.5c-142.667 0 -261 31.667 -355 95l92 190c78.667 -54.667 160.667 -82 246 -82c52.667 0 93.167 7.66699 121.5 23s42.5 37.666 42.5 66.999c0 13.333 -3.83301 25.166 -11.5 35.499
s-20.167 20 -37.5 29s-34.833 17.167 -52.5 24.5l-71 29.5c-29.667 12.333 -56.167 24.166 -79.5 35.499c-75.333 35.333 -131.333 75.333 -168 120s-55 103 -55 175c0 92.667 34 166.667 102 222s158.333 83 271 83c124 0 230.333 -26.667 319 -80l-96 -186
c-65.333 42 -136.333 63 -213 63c-91.333 0 -137 -29.333 -137 -88c0 -11.333 2.66699 -21.5 8 -30.5s11.5 -16.667 18.5 -23s18.167 -13.166 33.5 -20.499s28.5 -13.166 39.5 -17.499l50.5 -19c22.667 -8.33301 40.667 -15.166 54 -20.499
c34.667 -14.667 64.5 -28.334 89.5 -41.001s49.833 -28 74.5 -46s44.334 -37 59.001 -57s26.667 -43.667 36 -71s14 -57.333 14 -90zM65.999 1434h231l131 -136l131 136h231l-260 -326h-208z" />
    <glyph glyph-name="Ydieresis" unicode="&#x178;" horiz-adv-x="1224" 
d="M1202 1364l-438 -850v-514h-289v514l-452 850h321l289 -580h2l287 580h280zM963 1624c0 -41.333 -14.5 -76.166 -43.5 -104.499s-65.167 -42.5 -108.5 -42.5s-79.5 14.167 -108.5 42.5s-43.5 63.166 -43.5 104.499c0 40 14.5 74.333 43.5 103s65.167 43 108.5 43
s79.5 -14.333 108.5 -43s43.5 -63 43.5 -103zM533 1624c0 -41.333 -14.5 -76.166 -43.5 -104.499s-65.167 -42.5 -108.5 -42.5s-79.5 14.167 -108.5 42.5s-43.5 63.166 -43.5 104.499c0 40 14.5 74.333 43.5 103s65.167 43 108.5 43s79.5 -14.333 108.5 -43
s43.5 -63 43.5 -103z" />
    <glyph glyph-name="Zcaron" unicode="&#x17d;" horiz-adv-x="1183" 
d="M1087 0h-993v188l625 940h-598v236h948v-184l-631 -944h649v-236zM230 1801h231l131 -136l131 136h231l-260 -326h-208z" />
    <glyph glyph-name="zcaron" unicode="&#x17e;" horiz-adv-x="940" 
d="M850 0h-770v147l434 646h-414v204h746v-157l-432 -635h436v-205zM109 1434h231l131 -136l131 136h231l-260 -326h-208z" />
    <glyph glyph-name="florin" unicode="&#x192;" horiz-adv-x="970" 
d="M369 887l23.9971 219c30 262 177 393 441 393c108 0 196 -21.667 264 -65l-88 -185c-44 27.333 -99.333 41 -166 41c-60 0 -104.667 -17 -134 -51s-47.666 -86 -54.999 -156l-22 -196h237l-32 -203h-228l-73 -666c-29.333 -268.667 -168.666 -403 -417.999 -403
c-87.333 0 -160.333 14.333 -219 43l69 197c34.667 -19.333 74.334 -29 119.001 -29c58.667 0 102.5 17 131.5 51s47.167 84 54.5 150l72 657h-211l27 203h207z" />
    <glyph glyph-name="circumflex" unicode="&#x2c6;" horiz-adv-x="1024" 
d="M874 1110h-231l-131 135l-131 -135h-231l260 326h208z" />
    <glyph glyph-name="caron" unicode="&#x2c7;" horiz-adv-x="1024" 
d="M150 1434h231l131 -136l131 136h231l-260 -326h-208z" />
    <glyph glyph-name="breve" unicode="&#x2d8;" horiz-adv-x="1024" 
d="M856 1395c-6 -68.667 -26 -127 -60 -175s-75.333 -82.5 -124 -103.5s-102 -31.5 -160 -31.5s-111.333 10.5 -160 31.5s-90.167 55.5 -124.5 103.5s-54.833 106.333 -61.5 175h223c3.33301 -42 15.333 -74.667 36 -98s49.667 -35 87 -35c36 0 64.5 11.667 85.5 35
s33.5 56 37.5 98h221z" />
    <glyph glyph-name="dotaccent" unicode="&#x2d9;" horiz-adv-x="1024" 
d="M666 1284c0 -42.667 -14.5 -78.499 -43.5 -107.499s-65.833 -43.5 -110.5 -43.5s-81.5 14.5 -110.5 43.5s-43.5 64.167 -43.5 105.5s14.667 76.666 44 105.999s66 44 110 44s80.667 -14.5 110 -43.5s44 -63.833 44 -104.5z" />
    <glyph glyph-name="ring" unicode="&#x2da;" horiz-adv-x="1024" 
d="M737 1323c0 -61.333 -22.5 -113.166 -67.5 -155.499s-97.5 -63.5 -157.5 -63.5s-112.5 21.167 -157.5 63.5s-67.5 94.166 -67.5 155.499c0 60.667 22.5 112 67.5 154s97.5 63 157.5 63s112.5 -21 157.5 -63s67.5 -93.333 67.5 -154zM606 1323
c0 28.667 -8.5 52.834 -25.5 72.501s-39.833 29.5 -68.5 29.5s-51.5 -9.83301 -68.5 -29.5s-25.5 -43.834 -25.5 -72.501s8.5 -53.167 25.5 -73.5s39.833 -30.5 68.5 -30.5s51.5 10.167 68.5 30.5s25.5 44.833 25.5 73.5z" />
    <glyph glyph-name="ogonek" unicode="&#x2db;" horiz-adv-x="1024" 
d="M684 -434c-48 -24.667 -101.333 -37 -160 -37c-74 0 -133.333 18.167 -178 54.5s-67 85.833 -67 148.5c0 52.667 14.5 102 43.5 148s62.833 86 101.5 120h156c-24.667 -30.667 -43.5 -55.667 -56.5 -75s-25.333 -43.5 -37 -72.5s-17.5 -57.5 -17.5 -85.5
c0 -62 32.667 -93 98 -93c24.667 0 52.667 6.33301 84 19z" />
    <glyph glyph-name="tilde" unicode="&#x2dc;" horiz-adv-x="1024" 
d="M868 1274c-24.667 -42 -57.167 -78.5 -97.5 -109.5s-86.166 -46.5 -137.499 -46.5c-34.667 0 -66.334 6 -95.001 18s-54.667 24 -78 36s-46.333 18 -69 18c-32 0 -68.667 -20.667 -110 -62l-125 109c23.333 41.333 55 77.333 95 108s85.333 46 136 46
c35.333 0 67.333 -6 96 -18s54.5 -24 77.5 -36s45.833 -18 68.5 -18c43.333 0 81.333 21 114 63z" />
    <glyph glyph-name="hungarumlaut" unicode="&#x2dd;" horiz-adv-x="1024" 
d="M477 1108l189 276h315l-287 -276h-217zM63 1108l189 276h315l-286 -276h-218z" />
    <glyph glyph-name="Delta" unicode="&#x394;" horiz-adv-x="1204" 
d="M457 795l0.00195312 -794.999h-273v795h-149v202h149v101c0 123.333 39.833 221 119.5 293s188.167 108 325.5 108c61.333 0 117.666 -5.16699 168.999 -15.5s89.666 -20.833 114.999 -31.5s52.666 -24.334 81.999 -41.001l-96 -201c-73.333 44 -152.333 66 -237 66
c-136.667 0 -205 -67 -205 -201v-78h610v-1067c0 -271.333 -114.667 -407 -344 -407c-82 0 -141.333 8 -178 24l45 211c24 -8 50.667 -12 80 -12c46.667 0 78.834 16 96.501 48s26.5 87 26.5 165v836h-336z" />
    <glyph glyph-name="Omega" unicode="&#x3a9;" 
d="M2048 1475v-1905h-1905v1905h1905zM295 1323v-1599h1599v1599h-1599zM918 565l403 494h186l-411 -496l436 -563h-199l-415 537v-537h-162v1059h162v-494z" />
    <glyph glyph-name="mu" unicode="&#x3bc;" horiz-adv-x="1157" 
d="M399 997l-0.000976562 -649.001c0 -48 8.83301 -84.167 26.5 -108.5s49.167 -36.5 94.5 -36.5c76 0 148.333 41.667 217 125v669h273v-714c0 -112.667 8 -207 24 -283h-268c-11.333 36 -18.333 80.333 -21 133c-82 -92 -168.667 -141.667 -260 -149
c-37.333 -2 -68.666 2 -93.999 12h-6c5.33301 -53.333 8 -121.666 8 -204.999v-219h-266v1425h272z" />
    <glyph glyph-name="pi" unicode="&#x3c0;" horiz-adv-x="1712" 
d="M1618 735c0 -103.333 -20.167 -202.166 -60.5 -296.499s-94.666 -175.666 -162.999 -243.999s-149.666 -122.666 -243.999 -162.999s-193.166 -60.5 -296.499 -60.5s-202 20.167 -296 60.5s-175 94.666 -243 162.999s-122.167 149.666 -162.5 243.999
s-60.5 193.166 -60.5 296.499s20.167 202.166 60.5 296.499s94.5 175.666 162.5 243.999s149 122.666 243 162.999s192.667 60.5 296 60.5s202.166 -20.167 296.499 -60.5s175.666 -94.666 243.999 -162.999s122.666 -149.666 162.999 -243.999s60.5 -193.166 60.5 -296.499
zM1450 735c0 179.333 -55.999 325.167 -167.999 437.5s-254.667 168.5 -428 168.5c-172.667 0 -314.834 -56.167 -426.501 -168.5s-167.5 -258.166 -167.5 -437.499c0 -180.667 55.833 -326.834 167.5 -438.501s253.834 -167.5 426.501 -167.5
c85.333 0 164.666 14.5 237.999 43.5s136.333 69.667 189 122s94 116.333 124 192s45 158.5 45 248.5zM774.001 610.001v-298.999h-190v854h309c102 0 180.333 -26.333 235 -79s82 -118.334 82 -197.001c0 -82 -28.5 -149 -85.5 -201s-144.5 -78 -262.5 -78h-88z
M1018 883.002c0 90 -48.667 135 -146 135h-98v-266h88c104 0 156 43.667 156 131z" />
    <glyph glyph-name="endash" unicode="&#x2013;" horiz-adv-x="1126" 
d="M1028 444h-930v211h930v-211z" />
    <glyph glyph-name="emdash" unicode="&#x2014;" horiz-adv-x="1781" 
d="M1683 444h-1585v211h1585v-211z" />
    <glyph glyph-name="quoteleft" unicode="&#x2018;" horiz-adv-x="460" 
d="M61 997c0 62.667 15 127.502 45 194.502s63.667 124.5 101 172.5h170c-50.667 -68 -76 -132.333 -76 -193c0 -22.667 5.5 -43.334 16.5 -62.001s23 -33.667 36 -45s25 -27.5 36 -48.5s16.5 -44.833 16.5 -71.5c0 -42.667 -15.167 -77.834 -45.5 -105.501
s-67.833 -41.5 -112.5 -41.5c-52 0 -96.167 18.167 -132.5 54.5s-54.5 84.833 -54.5 145.5z" />
    <glyph glyph-name="quoteright" unicode="&#x2019;" horiz-adv-x="460" 
d="M401 1188c0 -62.667 -15 -127.5 -45 -194.5s-64 -124.5 -102 -172.5h-168c50.667 72 76 137 76 195c0 18.667 -3.66699 35.5 -11 50.5s-16.166 28 -26.499 39l-31.5 34c-10.667 11.667 -19.667 26.334 -27 44.001s-11 37.5 -11 59.5c0 42.667 15.333 77.667 46 105
s68.667 41 114 41c51.333 0 95.166 -18.333 131.499 -55s54.5 -85.334 54.5 -146.001z" />
    <glyph glyph-name="quotesinglbase" unicode="&#x201a;" horiz-adv-x="518" 
d="M430 111c0 -62.667 -15.1689 -127.831 -45.502 -195.498s-64.166 -124.834 -101.499 -171.501h-168c50 71.333 75 135.666 75 192.999c0 18.667 -3.66699 35.667 -11 51s-16.166 28.5 -26.499 39.5l-31 34c-10.333 11.667 -19.166 26.167 -26.499 43.5s-11 37 -11 59
c0 42.667 15.333 77.5 46 104.5s68.667 40.5 114 40.5c51.333 0 95.166 -18 131.499 -54s54.5 -84 54.5 -144z" />
    <glyph glyph-name="quotedblleft" unicode="&#x201c;" horiz-adv-x="890" 
d="M489 997c0 62.667 15.168 127.333 45.501 194s64.5 124.334 102.5 173.001h168c-50.667 -72 -76 -136.333 -76 -193c0 -18.667 3.66699 -35.667 11 -51s16.166 -28.5 26.499 -39.5l31.5 -34c10.667 -11.667 19.667 -26.167 27 -43.5s11 -37 11 -59
c0 -42.667 -15.167 -77.834 -45.5 -105.501s-67.833 -41.5 -112.5 -41.5c-52 0 -96.5 18.333 -133.5 55s-55.5 85 -55.5 145zM51.001 996.999c0 62.667 15.168 127.333 45.501 194s64.5 124.334 102.5 173.001h168c-50.667 -72 -76 -136.333 -76 -193
c0 -18.667 3.66699 -35.667 11 -51s16.166 -28.5 26.499 -39.5l31 -34c10.333 -11.667 19.166 -26.167 26.499 -43.5s11 -37 11 -59c0 -42.667 -15.167 -77.834 -45.5 -105.501s-68.166 -41.5 -113.499 -41.5c-51.333 0 -95.333 18.333 -132 55s-55 85 -55 145z" />
    <glyph glyph-name="quotedblright" unicode="&#x201d;" horiz-adv-x="901" 
d="M840 1188c0 -62 -15.001 -126.334 -45.001 -193.001s-63.667 -124.667 -101 -174h-170c50.667 72 76 137 76 195c0 18.667 -3.66699 35.5 -11 50.5s-16.166 28 -26.499 39l-31 34c-10.333 11.667 -19.166 26.334 -26.499 44.001s-11 37.5 -11 59.5
c0 42.667 15.167 77.667 45.5 105s68.166 41 113.499 41c51.333 0 95.333 -18.5 132 -55.5s55 -85.5 55 -145.5zM400.999 1188c0 -62.667 -15 -127.5 -45 -194.5s-64 -124.5 -102 -172.5h-168c50.667 72 76 137 76 195c0 18.667 -3.66699 35.5 -11 50.5
s-16.166 28 -26.499 39l-31.5 34c-10.667 11.667 -19.667 26.334 -27 44.001s-11 37.5 -11 59.5c0 42.667 15.333 77.667 46 105s68.667 41 114 41c51.333 0 95.166 -18.333 131.499 -55s54.5 -85.334 54.5 -146.001z" />
    <glyph glyph-name="quotedblbase" unicode="&#x201e;" horiz-adv-x="901" 
d="M840 111c0 -62.667 -15.168 -127.668 -45.501 -195.001s-63.833 -124.666 -100.5 -171.999h-170c50.667 72 76 136.333 76 193c0 18.667 -3.66699 35.667 -11 51s-16.166 28.5 -26.499 39.5l-31 34c-10.333 11.667 -19.166 26.167 -26.499 43.5s-11 37 -11 59
c0 42.667 15.167 77.5 45.5 104.5s68.166 40.5 113.499 40.5c51.333 0 95.333 -18 132 -54s55 -84 55 -144zM400.999 110.999c0 -62.667 -15.168 -127.832 -45.501 -195.499s-64.166 -124.834 -101.499 -171.501h-168c50.667 72 76 136.333 76 193
c0 18.667 -3.66699 35.667 -11 51s-16.166 28.5 -26.499 39.5l-31.5 34c-10.667 11.667 -19.667 26.167 -27 43.5s-11 37 -11 59c0 42.667 15.333 77.5 46 104.5s68.667 40.5 114 40.5c51.333 0 95.166 -18 131.499 -54s54.5 -84 54.5 -144z" />
    <glyph glyph-name="dagger" unicode="&#x2020;" horiz-adv-x="1142" 
d="M1061 997v-237h-225l-146 18l37 -258l-68 -868h-176l-69 868l41 258l-148 -18h-225v237h225l148 -18l-31 215v281h295v-281l-29 -215l146 18h225z" />
    <glyph glyph-name="daggerdbl" unicode="&#x2021;" horiz-adv-x="1165" 
d="M1061 92h-225l-146 19l29 -215v-242h-295v242l31 215l-148 -19h-225v240h225l148 -21l-39 234l39 233l-148 -18h-225v237h225l148 -18l-31 215v281h295v-281l-29 -215l146 18h225v-237h-225l-146 18l35 -233l-35 -234l146 21h225v-240z" />
    <glyph glyph-name="bullet" unicode="&#x2022;" horiz-adv-x="897" 
d="M811 588c0 -100 -35.168 -185.167 -105.501 -255.5s-155.833 -105.5 -256.5 -105.5c-99.333 0 -184.666 35.333 -255.999 106s-107 155.667 -107 255c0 100 35.5 185.333 106.5 256s156.5 106 256.5 106c100.667 0 186.167 -35.167 256.5 -105.5
s105.5 -155.833 105.5 -256.5z" />
    <glyph glyph-name="ellipsis" unicode="&#x2026;" horiz-adv-x="1554" 
d="M1444 156c0 -48.667 -17.5 -90.167 -52.5 -124.5s-77.5 -51.5 -127.5 -51.5c-49.333 0 -91.833 17.167 -127.5 51.5s-53.5 75.833 -53.5 124.5c0 48 17.833 88.667 53.5 122s78.167 50 127.5 50c50 0 92.5 -16.667 127.5 -50s52.5 -74 52.5 -122zM956 156
c0 -49.333 -17.333 -91 -52 -125s-77.334 -51 -128.001 -51c-49.333 0 -91.333 17.167 -126 51.5s-52 75.833 -52 124.5c0 48 17.333 88.667 52 122s76.667 50 126 50c50.667 0 93.334 -16.667 128.001 -50s52 -74 52 -122zM471 156c0 -48.667 -17.5 -90.167 -52.5 -124.5
s-77.5 -51.5 -127.5 -51.5s-92.5 17.167 -127.5 51.5s-52.5 75.833 -52.5 124.5c0 48 17.5 88.667 52.5 122s77.5 50 127.5 50s92.5 -16.667 127.5 -50s52.5 -74 52.5 -122z" />
    <glyph glyph-name="perthousand" unicode="&#x2030;" horiz-adv-x="2549" 
d="M750 709c0 -42 -7.66797 -82.332 -23.001 -120.999s-37.166 -73.334 -65.499 -104.001s-65.5 -55.167 -111.5 -73.5s-97 -27.5 -153 -27.5c-110.667 0 -196.334 30.667 -257.001 92s-91 136.333 -91 225c0 42 7.5 82 22.5 120s36.833 72.167 65.5 102.5
s65.834 54.5 111.501 72.5s96.5 27 152.5 27c111.333 0 197.333 -29.833 258 -89.5s91 -134.167 91 -223.5zM1305 999.001l-598 -999h-228l600 999h226zM2501 299.001c0 -88 -31.5 -163.999 -94.5 -227.999s-149.167 -96 -258.5 -96c-110.667 0 -196.334 30.667 -257.001 92
s-91 136.666 -91 225.999c0 42 7.5 81.833 22.5 119.5s36.833 71.667 65.5 102s65.834 54.5 111.501 72.5s96.5 27 152.5 27c110.667 0 196.5 -30 257.5 -90s91.5 -135 91.5 -225zM1731 299.002c0 -88 -31.168 -163.999 -93.501 -227.999s-148.166 -96 -257.499 -96
c-110.667 0 -196.334 30.667 -257.001 92s-91 136.666 -91 225.999c0 42 7.5 81.833 22.5 119.5s36.833 71.667 65.5 102s65.834 54.5 111.501 72.5s96.5 27 152.5 27c110.667 0 196.167 -30 256.5 -90s90.5 -135 90.5 -225zM517.998 700.003
c0 45.333 -9.66602 82.667 -28.999 112s-49.333 44 -90 44c-78.667 0 -118 -49 -118 -147c0 -45.333 9.66699 -83.333 29 -114s49.666 -46 90.999 -46c78 0 117 50.333 117 151zM2269 293.004c0 45.333 -9.66797 82.666 -29.001 111.999s-49.333 44 -90 44
c-41.333 0 -71.666 -13.667 -90.999 -41s-29 -63.666 -29 -108.999c0 -44.667 10 -82.167 30 -112.5s50.667 -45.5 92 -45.5c78 0 117 50.667 117 152zM1499 293.004c0 45.333 -9.66699 82.667 -29 112s-49.333 44 -90 44c-78.667 0 -118 -50 -118 -150
c0 -44.667 10 -82.167 30 -112.5s50.667 -45.5 92 -45.5c76.667 0 115 50.667 115 152z" />
    <glyph glyph-name="guilsinglleft" unicode="&#x2039;" horiz-adv-x="655" 
d="M598 109h-287l-245 393l245 395h287l-244 -395z" />
    <glyph glyph-name="guilsinglright" unicode="&#x203a;" horiz-adv-x="655" 
d="M57 897h287l246 -393l-246 -395h-287l246 395z" />
    <glyph glyph-name="fraction" unicode="&#x2044;" horiz-adv-x="851" 
d="M1038 1475l-833 -1706h-252l835 1706h250z" />
    <glyph glyph-name="trademark" unicode="&#x2122;" horiz-adv-x="1513" 
d="M637 758l82 606.001h170l108 -297c6 -16.667 11.833 -35.334 17.5 -56.001l13.5 -49l4 -18h4c10.667 42.667 23.667 83.667 39 123l107 297h174l80 -606h-174l-27 264l-6 106h-4c-6.66699 -38.667 -17.667 -80 -33 -124l-90 -246h-150l-82 243
c-6 16.667 -12 35.667 -18 57l-14 51l-4 19h-5c-1.33301 -32.667 -4 -68.667 -8 -108l-28 -262h-156zM416 1225v-467h-170v467h-178v139h524v-139h-176z" />
    <glyph glyph-name="partialdiff" unicode="&#x2202;" 
d="M2048 1475v-1905h-1905v1905h1905zM295 1323v-1599h1599v1599h-1599zM1227 276c0 -96 -23 -169.833 -69 -221.5s-111.667 -77.5 -197 -77.5c-48.667 0 -87 7 -115 21l26 139c12 -9.33301 33.333 -14 64 -14c45.333 0 77.833 13.667 97.5 41s29.5 72.333 29.5 135v756h164
v-779z" />
    <glyph glyph-name="product" unicode="&#x220f;" 
d="M2048 1475v-1905h-1905v1905h1905zM295 1323v-1599h1599v1599h-1599zM918 565l403 494h186l-411 -496l436 -563h-199l-415 537v-537h-162v1059h162v-494z" />
    <glyph glyph-name="summation" unicode="&#x2211;" 
d="M2048 1475v-1905h-1905v1905h1905zM295 1323v-1599h1599v1599h-1599zM918 565l403 494h186l-411 -496l436 -563h-199l-415 537v-537h-162v1059h162v-494z" />
    <glyph glyph-name="minus" unicode="&#x2212;" 
d="M2048 1475v-1905h-1905v1905h1905zM295 1323v-1599h1599v1599h-1599zM918 565l403 494h186l-411 -496l436 -563h-199l-415 537v-537h-162v1059h162v-494z" />
    <glyph glyph-name="radical" unicode="&#x221a;" horiz-adv-x="1191" 
d="M1182 1475l-498 -1475h-254l-383 997h289l221 -635h4l344 1113h277z" />
    <glyph glyph-name="infinity" unicode="&#x221e;" horiz-adv-x="1798" 
d="M188 997l0.00292969 95c0 120.667 37 216.667 111 288s177 107 309 107c54 0 103.167 -4.66699 147.5 -14s77 -18.833 98 -28.5s44.5 -22.167 70.5 -37.5c79.333 61.333 181 92 305 92c61.333 0 117.666 -5.16699 168.999 -15.5s89.666 -20.833 114.999 -31.5
s52.666 -24.334 81.999 -41.001l-96 -201c-73.333 44 -152.333 66 -237 66c-66 0 -116.667 -16.667 -152 -50s-53 -83.666 -53 -150.999v-78h604v-997h-272v795h-332v-795h-271v795h-325v-795h-273v795h-153v202h153zM801.003 1214c-43.333 32 -96.668 48 -160.001 48
c-59.333 0 -104.166 -15.833 -134.499 -47.5s-45.5 -84.167 -45.5 -157.5v-60h325v101c0 40 5 78.667 15 116z" />
    <glyph glyph-name="integral" unicode="&#x222b;" horiz-adv-x="2095" 
d="M2048 1473v-1905h-1905v1905h1905zM295 1321v-1600h1599v1600h-1599zM799 -2h-164l403 1055h160l410 -1055h-181l-86 235h-458zM1178 684l-64 186h-4c-17.333 -65.333 -37 -127.333 -59 -186l-119 -315h358z" />
    <glyph glyph-name="approxequal" unicode="&#x2248;" 
d="M2048 1475v-1905h-1905v1905h1905zM295 1323v-1599h1599v1599h-1599zM918 565l403 494h186l-411 -496l436 -563h-199l-415 537v-537h-162v1059h162v-494z" />
    <glyph glyph-name="notequal" unicode="&#x2260;" horiz-adv-x="1347" 
d="M461 795l0.00195312 -795h-273v795h-153v202h153v95c0 120.667 37 216.667 111 288s177 107 309 107c121.333 0 221.666 -25.333 300.999 -76c68 58.667 157.667 88 269 88c104.667 0 185 -15.667 241 -47l-63 -205c-38.667 19.333 -84.334 29 -137.001 29
c-108 0 -162 -65.667 -162 -197v-82h239v-202h-239v-795h-271v795h-325zM799.002 1214c-40 32 -92.668 48 -158.001 48c-59.333 0 -104.166 -15.833 -134.499 -47.5s-45.5 -84.167 -45.5 -157.5v-60h325v103c0 38 4.33301 76 13 114z" />
    <glyph glyph-name="lessequal" unicode="&#x2264;" 
d="M2048 1475v-1905h-1905v1905h1905zM295 1323v-1599h1599v1599h-1599zM918 565l403 494h186l-411 -496l436 -563h-199l-415 537v-537h-162v1059h162v-494z" />
    <glyph glyph-name="greaterequal" unicode="&#x2265;" 
d="M2048 1475v-1905h-1905v1905h1905zM295 1323v-1599h1599v1599h-1599zM918 565l403 494h186l-411 -496l436 -563h-199l-415 537v-537h-162v1059h162v-494z" />
    <glyph glyph-name="lozenge" unicode="&#x25ca;" 
d="M2048 1475v-1905h-1905v1905h1905zM295 1323v-1599h1599v1599h-1599zM918 565l403 494h186l-411 -496l436 -563h-199l-415 537v-537h-162v1059h162v-494z" />
    <glyph glyph-name="fi" unicode="&#xfb01;" horiz-adv-x="1204" 
d="M184 997l0.00292969 101.001c0 123.333 39.833 221 119.5 293s188.167 108 325.5 108c61.333 0 117.666 -5.16699 168.999 -15.5s89.666 -20.833 114.999 -31.5s52.666 -24.334 81.999 -41.001l-96 -201c-73.333 44 -152.333 66 -237 66c-136.667 0 -205 -67 -205 -201
v-78h610v-997h-272v795h-338v-795h-273v795h-149v202h149z" />
    <glyph glyph-name="fl" unicode="&#xfb02;" horiz-adv-x="1226" 
d="M457 997l209 -0.000976562v-202h-209v-795h-273v795h-149v202h149v103c0 126.667 40.5 224.834 121.5 294.501s198.833 104.5 353.5 104.5c83.333 0 162.833 -6 238.5 -18s136.167 -26.333 181.5 -43v-1438h-272v1253c-38 15.333 -93.333 23 -166 23
c-122.667 0 -184 -67 -184 -201v-78z" />
    <glyph glyph-name=".null" horiz-adv-x="0" 
 />
    <glyph glyph-name="nonmarkingreturn" horiz-adv-x="682" 
 />
    <glyph glyph-name="apple" 
d="M2048 1475v-1905h-1905v1905h1905zM295 1323v-1599h1599v1599h-1599zM918 565l403 494h186l-411 -496l436 -563h-199l-415 537v-537h-162v1059h162v-494z" />
  </font>
</defs>
</svg>
